<?xml version="1.0" encoding="UTF-8" standalone="no"?>
<!DOCTYPE svg PUBLIC "-//W3C//DTD SVG 1.1//EN" "http://www.w3.org/Graphics/SVG/1.1/DTD/svg11.dtd">
<svg width="100%" height="100%" viewBox="0 0 361 114" version="1.1" xmlns="http://www.w3.org/2000/svg" xmlns:xlink="http://www.w3.org/1999/xlink" xml:space="preserve" xmlns:serif="http://www.serif.com/" style="fill-rule:evenodd;clip-rule:evenodd;stroke-linejoin:round;stroke-miterlimit:2;">
    <g transform="matrix(1,0,0,1,-28.289,-29.268)">
        <path d="M84.982,142.653L28.289,132.022L28.289,46.984L84.982,29.268L84.982,142.653Z" style="fill:rgb(7,78,162);fill-rule:nonzero;"/>
        <path d="M28.296,111.586L28.296,89.509C31.154,90.284 34.326,90.648 36.422,89.387C41,86.655 47.937,78.291 47.937,78.291C47.937,78.291 44.279,87.308 45.66,90.621C47.116,94.138 55.781,94.327 55.781,94.327C55.781,94.327 45.987,100.281 41.429,104.229C36.74,108.257 33.484,123.058 33.484,123.058C33.484,123.058 31.214,113.57 28.296,111.586Z" style="fill:rgb(255,242,0);fill-rule:nonzero;"/>
        <path d="M84.982,72.635C83.018,73.868 81.097,74.842 79.649,75.125C75.094,76.005 70.219,70.772 70.219,70.772C70.219,70.772 71.365,78.424 68.498,83.138C65.482,88.105 55.783,94.326 55.783,94.326C55.783,94.326 66.503,92.249 68.589,95.576C70.805,99.143 71.102,111.567 71.102,111.567C71.102,111.567 76.566,96.651 81.522,94.619C82.489,94.21 83.695,93.83 84.982,93.462L84.982,72.635Z" style="fill:rgb(237,28,36);fill-rule:nonzero;"/>
        <path d="M47.936,78.29C47.936,78.29 53.414,69.704 53.084,66.648C52.76,63.747 47.077,62.702 47.077,62.702C47.077,62.702 54.516,60.873 57.763,57.955C60.89,55.134 63.629,49.288 63.629,49.288C63.629,49.288 64.319,54.127 67.102,54.821C69.976,55.545 77.647,52.445 77.647,52.445C77.647,52.445 71.59,58.177 69.214,61.304C66.731,64.566 70.218,70.773 70.218,70.773C70.218,70.773 63.79,68.532 60.192,69.206C56.652,69.876 47.936,78.29 47.936,78.29Z" style="fill:white;fill-rule:nonzero;"/>
        <path d="M109.292,104.293C109.292,105.604 109.604,106.633 110.228,107.379C110.851,108.126 111.711,108.499 112.811,108.499C113.286,108.499 113.691,108.478 114.028,108.437C114.364,108.397 114.639,108.351 114.853,108.302L114.853,100.922C114.59,100.742 114.241,100.574 113.807,100.418C113.372,100.263 112.908,100.185 112.417,100.185C111.334,100.185 110.543,100.554 110.043,101.291C109.542,102.029 109.292,103.03 109.292,104.293ZM117.829,110.369C117.238,110.549 116.496,110.713 115.603,110.861C114.708,111.008 113.77,111.082 112.786,111.082C111.769,111.082 110.858,110.925 110.055,110.615C109.251,110.303 108.566,109.856 108.001,109.274C107.436,108.692 107,107.987 106.697,107.158C106.394,106.331 106.242,105.399 106.242,104.366C106.242,103.349 106.369,102.427 106.623,101.598C106.878,100.772 107.251,100.062 107.743,99.471C108.234,98.881 108.833,98.426 109.538,98.106C110.243,97.786 111.056,97.626 111.974,97.626C112.597,97.626 113.147,97.7 113.622,97.848C114.098,97.995 114.508,98.159 114.853,98.34L114.853,92.165L117.829,91.673L117.829,110.369Z" style="fill:rgb(35,31,32);fill-rule:nonzero;"/>
        <path d="M125.849,111.008C124.963,110.992 124.229,110.893 123.647,110.713C123.064,110.533 122.601,110.274 122.257,109.938C121.912,109.602 121.67,109.184 121.531,108.683C121.392,108.183 121.322,107.613 121.322,106.973L121.322,92.165L124.299,91.673L124.299,106.408C124.299,106.769 124.327,107.072 124.385,107.318C124.441,107.564 124.544,107.773 124.692,107.945C124.84,108.118 125.04,108.249 125.295,108.338C125.549,108.429 125.873,108.499 126.267,108.548L125.849,111.008Z" style="fill:rgb(35,31,32);fill-rule:nonzero;"/>
        <path d="M133.203,108.671C134.122,108.671 134.818,108.622 135.295,108.523L135.295,105.227C135.131,105.178 134.893,105.129 134.581,105.08C134.27,105.03 133.925,105.005 133.548,105.005C133.22,105.005 132.888,105.03 132.552,105.08C132.215,105.129 131.912,105.219 131.642,105.35C131.371,105.481 131.153,105.666 130.989,105.904C130.825,106.141 130.743,106.441 130.743,106.801C130.743,107.506 130.965,107.995 131.408,108.265C131.851,108.536 132.449,108.671 133.203,108.671ZM132.958,97.577C133.941,97.577 134.77,97.7 135.442,97.946C136.114,98.191 136.651,98.536 137.054,98.98C137.455,99.422 137.742,99.959 137.914,100.591C138.087,101.221 138.173,101.915 138.173,102.669L138.173,110.466C137.714,110.565 137.021,110.684 136.094,110.824C135.167,110.963 134.122,111.033 132.958,111.033C132.187,111.033 131.481,110.959 130.841,110.811C130.201,110.664 129.657,110.426 129.205,110.098C128.755,109.77 128.401,109.343 128.147,108.819C127.894,108.294 127.767,107.646 127.767,106.876C127.767,106.137 127.91,105.514 128.197,105.005C128.483,104.498 128.873,104.084 129.366,103.763C129.858,103.444 130.427,103.214 131.075,103.075C131.724,102.935 132.399,102.866 133.106,102.866C133.433,102.866 133.777,102.886 134.139,102.927C134.499,102.968 134.885,103.038 135.295,103.136L135.295,102.644C135.295,102.299 135.254,101.972 135.172,101.66C135.089,101.348 134.946,101.074 134.741,100.836C134.536,100.599 134.266,100.414 133.93,100.283C133.593,100.151 133.171,100.086 132.662,100.086C131.974,100.086 131.342,100.135 130.769,100.233C130.194,100.332 129.727,100.447 129.366,100.578L128.996,98.167C129.373,98.036 129.923,97.905 130.646,97.774C131.366,97.643 132.138,97.577 132.958,97.577Z" style="fill:rgb(35,31,32);fill-rule:nonzero;"/>
        <path d="M152.76,96.224C152.104,96.224 151.497,96.248 150.939,96.298L150.939,101.807L152.293,101.807C153.047,101.807 153.711,101.767 154.285,101.684C154.859,101.603 155.339,101.456 155.725,101.242C156.109,101.029 156.4,100.742 156.598,100.381C156.794,100.021 156.893,99.562 156.893,99.004C156.893,98.479 156.794,98.036 156.598,97.675C156.4,97.315 156.118,97.027 155.749,96.815C155.38,96.602 154.94,96.449 154.433,96.359C153.924,96.27 153.366,96.224 152.76,96.224ZM152.538,93.542C154.998,93.542 156.881,93.994 158.185,94.896C159.488,95.798 160.14,97.175 160.14,99.028C160.14,101.34 159,102.907 156.721,103.726C157.032,104.104 157.385,104.563 157.778,105.104C158.172,105.645 158.573,106.232 158.983,106.863C159.394,107.495 159.787,108.142 160.164,108.806C160.542,109.47 160.878,110.123 161.173,110.762L157.704,110.762C157.393,110.171 157.057,109.578 156.696,108.978C156.335,108.38 155.97,107.797 155.602,107.232C155.232,106.667 154.867,106.133 154.507,105.633C154.146,105.132 153.81,104.686 153.498,104.293C153.268,104.309 153.071,104.317 152.907,104.317L150.939,104.317L150.939,110.762L147.84,110.762L147.84,93.961C148.594,93.797 149.398,93.687 150.251,93.629C151.104,93.571 151.866,93.542 152.538,93.542Z" style="fill:rgb(35,31,32);fill-rule:nonzero;"/>
        <path d="M171.731,104.317C171.731,103.038 171.456,102.025 170.907,101.279C170.357,100.533 169.591,100.16 168.607,100.16C167.623,100.16 166.856,100.533 166.307,101.279C165.758,102.025 165.482,103.038 165.482,104.317C165.482,105.613 165.758,106.637 166.307,107.392C166.856,108.146 167.623,108.523 168.607,108.523C169.591,108.523 170.357,108.146 170.907,107.392C171.456,106.637 171.731,105.613 171.731,104.317ZM174.781,104.317C174.781,105.334 174.634,106.26 174.339,107.096C174.044,107.933 173.626,108.646 173.084,109.237C172.543,109.828 171.892,110.287 171.129,110.615C170.366,110.942 169.525,111.106 168.607,111.106C167.689,111.106 166.853,110.942 166.098,110.615C165.344,110.287 164.695,109.828 164.154,109.237C163.613,108.646 163.19,107.933 162.888,107.096C162.584,106.26 162.433,105.334 162.433,104.317C162.433,103.3 162.584,102.378 162.888,101.549C163.19,100.722 163.617,100.013 164.167,99.422C164.716,98.831 165.368,98.376 166.122,98.057C166.877,97.736 167.705,97.577 168.607,97.577C169.509,97.577 170.342,97.736 171.105,98.057C171.866,98.376 172.519,98.831 173.06,99.422C173.601,100.013 174.023,100.722 174.326,101.549C174.63,102.378 174.781,103.3 174.781,104.317Z" style="fill:rgb(35,31,32);fill-rule:nonzero;"/>
        <path d="M186.167,99.987C185.838,100.332 185.408,100.816 184.875,101.439C184.342,102.062 183.772,102.754 183.165,103.517C182.558,104.28 181.947,105.076 181.332,105.904C180.718,106.732 180.164,107.523 179.672,108.278L186.314,108.278L186.314,110.762L176.081,110.762L176.081,108.917C176.441,108.261 176.893,107.547 177.434,106.777C177.975,106.006 178.532,105.231 179.106,104.452C179.681,103.673 180.25,102.931 180.816,102.226C181.382,101.521 181.886,100.906 182.329,100.381L176.4,100.381L176.4,97.897L186.167,97.897L186.167,99.987Z" style="fill:rgb(35,31,32);fill-rule:nonzero;"/>
        <path d="M196.904,102.669C196.527,104.112 196.122,105.518 195.688,106.887C195.253,108.257 194.823,109.548 194.398,110.762L191.953,110.762C191.625,110.008 191.279,109.147 190.918,108.179C190.557,107.212 190.195,106.178 189.834,105.08C189.473,103.981 189.111,102.825 188.75,101.611C188.389,100.398 188.035,99.16 187.69,97.897L190.84,97.897C190.988,98.586 191.162,99.328 191.359,100.123C191.557,100.919 191.763,101.73 191.978,102.558C192.191,103.386 192.414,104.194 192.645,104.981C192.876,105.768 193.106,106.49 193.337,107.146C193.584,106.392 193.826,105.613 194.064,104.809C194.303,104.005 194.528,103.202 194.742,102.398C194.956,101.594 195.157,100.812 195.347,100.049C195.536,99.286 195.704,98.569 195.853,97.897L198.14,97.897C198.287,98.569 198.451,99.286 198.631,100.049C198.811,100.812 199.003,101.594 199.207,102.398C199.412,103.202 199.633,104.005 199.87,104.809C200.107,105.613 200.349,106.392 200.594,107.146C200.809,106.49 201.031,105.768 201.262,104.981C201.492,104.194 201.719,103.386 201.941,102.558C202.164,101.73 202.374,100.919 202.572,100.123C202.77,99.328 202.942,98.586 203.091,97.897L206.167,97.897C205.821,99.16 205.469,100.398 205.107,101.611C204.746,102.825 204.384,103.981 204.023,105.08C203.661,106.178 203.3,107.212 202.939,108.179C202.577,109.147 202.224,110.008 201.879,110.762L199.459,110.762C199.033,109.548 198.595,108.257 198.145,106.887C197.694,105.518 197.281,104.112 196.904,102.669Z" style="fill:rgb(35,31,32);fill-rule:nonzero;"/>
        <path d="M216.395,104.317C216.395,103.038 216.12,102.025 215.57,101.279C215.022,100.533 214.255,100.16 213.271,100.16C212.287,100.16 211.52,100.533 210.971,101.279C210.421,102.025 210.147,103.038 210.147,104.317C210.147,105.613 210.421,106.637 210.971,107.392C211.52,108.146 212.287,108.523 213.271,108.523C214.255,108.523 215.022,108.146 215.57,107.392C216.12,106.637 216.395,105.613 216.395,104.317ZM219.445,104.317C219.445,105.334 219.298,106.26 219.003,107.096C218.707,107.933 218.289,108.646 217.748,109.237C217.207,109.828 216.555,110.287 215.792,110.615C215.029,110.942 214.189,111.106 213.271,111.106C212.352,111.106 211.516,110.942 210.762,110.615C210.007,110.287 209.359,109.828 208.818,109.237C208.277,108.646 207.855,107.933 207.551,107.096C207.247,106.26 207.096,105.334 207.096,104.317C207.096,103.3 207.247,102.378 207.551,101.549C207.855,100.722 208.28,100.013 208.83,99.422C209.38,98.831 210.031,98.376 210.786,98.057C211.54,97.736 212.368,97.577 213.271,97.577C214.173,97.577 215.005,97.736 215.768,98.057C216.53,98.376 217.182,98.831 217.724,99.422C218.265,100.013 218.687,100.722 218.99,101.549C219.293,102.378 219.445,103.3 219.445,104.317Z" style="fill:rgb(35,31,32);fill-rule:nonzero;"/>
        <path d="M225.481,94.133C225.481,94.69 225.301,95.134 224.94,95.461C224.58,95.789 224.153,95.953 223.661,95.953C223.153,95.953 222.718,95.789 222.357,95.461C221.997,95.134 221.816,94.69 221.816,94.133C221.816,93.559 221.997,93.108 222.357,92.78C222.718,92.452 223.153,92.288 223.661,92.288C224.153,92.288 224.58,92.452 224.94,92.78C225.301,93.108 225.481,93.559 225.481,94.133ZM220.537,115.338C220.324,115.338 220.024,115.317 219.64,115.276C219.254,115.235 218.914,115.157 218.618,115.043L219.012,112.607C219.373,112.721 219.808,112.779 220.315,112.779C221.005,112.779 221.488,112.579 221.768,112.176C222.046,111.774 222.186,111.171 222.186,110.369L222.186,97.897L225.162,97.897L225.162,110.418C225.162,112.09 224.765,113.329 223.969,114.132C223.173,114.935 222.029,115.338 220.537,115.338Z" style="fill:rgb(35,31,32);fill-rule:nonzero;"/>
        <path d="M239.12,110.369C238.546,110.516 237.8,110.668 236.882,110.824C235.963,110.979 234.954,111.057 233.856,111.057C232.822,111.057 231.957,110.91 231.261,110.615C230.564,110.319 230.006,109.91 229.588,109.384C229.17,108.86 228.87,108.232 228.689,107.503C228.509,106.773 228.419,105.973 228.419,105.104L228.419,97.897L231.396,97.897L231.396,104.636C231.396,106.014 231.597,106.999 231.998,107.588C232.4,108.179 233.102,108.474 234.102,108.474C234.462,108.474 234.844,108.459 235.246,108.425C235.648,108.392 235.947,108.351 236.144,108.302L236.144,97.897L239.12,97.897L239.12,110.369Z" style="fill:rgb(35,31,32);fill-rule:nonzero;"/>
        <path d="M252.527,108.45C253.643,108.45 254.454,108.261 254.963,107.883C255.471,107.506 255.726,106.973 255.726,106.285C255.726,105.876 255.639,105.522 255.467,105.227C255.295,104.932 255.049,104.666 254.729,104.427C254.409,104.19 254.02,103.968 253.561,103.763C253.101,103.558 252.576,103.357 251.986,103.161C251.396,102.948 250.825,102.714 250.276,102.46C249.727,102.206 249.243,101.89 248.825,101.512C248.406,101.135 248.07,100.685 247.816,100.16C247.562,99.635 247.435,99.004 247.435,98.266C247.435,96.725 247.968,95.515 249.034,94.637C250.1,93.76 251.551,93.321 253.388,93.321C254.454,93.321 255.401,93.44 256.23,93.678C257.058,93.916 257.709,94.174 258.186,94.453L257.226,96.962C256.668,96.65 256.058,96.412 255.393,96.248C254.729,96.085 254.044,96.003 253.339,96.003C252.503,96.003 251.851,96.175 251.383,96.52C250.916,96.863 250.683,97.348 250.683,97.971C250.683,98.348 250.76,98.672 250.916,98.942C251.071,99.213 251.293,99.455 251.58,99.668C251.867,99.881 252.203,100.078 252.589,100.258C252.974,100.439 253.397,100.611 253.856,100.774C254.659,101.07 255.377,101.369 256.008,101.672C256.64,101.976 257.172,102.337 257.607,102.754C258.04,103.173 258.372,103.665 258.604,104.231C258.833,104.796 258.946,105.481 258.946,106.285C258.946,107.827 258.402,109.02 257.312,109.864C256.221,110.709 254.626,111.131 252.527,111.131C251.822,111.131 251.178,111.086 250.596,110.996C250.014,110.906 249.497,110.795 249.046,110.664C248.595,110.533 248.206,110.397 247.878,110.257C247.55,110.119 247.287,109.992 247.091,109.877L248.001,107.342C248.443,107.588 249.042,107.835 249.797,108.081C250.551,108.327 251.461,108.45 252.527,108.45Z" style="fill:rgb(35,31,32);fill-rule:nonzero;"/>
        <path d="M270.06,104.39C270.06,103.062 269.76,102.029 269.161,101.291C268.563,100.554 267.6,100.185 266.271,100.185C265.992,100.185 265.701,100.196 265.397,100.222C265.094,100.246 264.795,100.3 264.5,100.381L264.5,107.736C264.762,107.917 265.11,108.085 265.545,108.241C265.98,108.397 266.443,108.474 266.936,108.474C268.018,108.474 268.809,108.105 269.309,107.367C269.809,106.629 270.06,105.637 270.06,104.39ZM273.109,104.341C273.109,105.326 272.982,106.227 272.729,107.047C272.474,107.868 272.109,108.573 271.634,109.163C271.158,109.754 270.564,110.213 269.851,110.541C269.137,110.869 268.329,111.033 267.427,111.033C266.82,111.033 266.263,110.959 265.754,110.811C265.246,110.664 264.827,110.5 264.5,110.319L264.5,115.313L261.523,115.313L261.523,98.315C262.13,98.151 262.876,97.995 263.762,97.848C264.647,97.7 265.582,97.626 266.566,97.626C267.583,97.626 268.493,97.782 269.297,98.094C270.1,98.405 270.785,98.853 271.351,99.435C271.917,100.017 272.351,100.722 272.654,101.549C272.958,102.378 273.109,103.308 273.109,104.341Z" style="fill:rgb(35,31,32);fill-rule:nonzero;"/>
        <path d="M284.255,104.317C284.255,103.038 283.98,102.025 283.431,101.279C282.881,100.533 282.115,100.16 281.131,100.16C280.147,100.16 279.38,100.533 278.831,101.279C278.281,102.025 278.007,103.038 278.007,104.317C278.007,105.613 278.281,106.637 278.831,107.392C279.38,108.146 280.147,108.523 281.131,108.523C282.115,108.523 282.881,108.146 283.431,107.392C283.98,106.637 284.255,105.613 284.255,104.317ZM287.306,104.317C287.306,105.334 287.158,106.26 286.862,107.096C286.567,107.933 286.149,108.646 285.608,109.237C285.066,109.828 284.415,110.287 283.652,110.615C282.89,110.942 282.049,111.106 281.131,111.106C280.212,111.106 279.376,110.942 278.622,110.615C277.867,110.287 277.22,109.828 276.678,109.237C276.137,108.646 275.715,107.933 275.411,107.096C275.107,106.26 274.956,105.334 274.956,104.317C274.956,103.3 275.107,102.378 275.411,101.549C275.715,100.722 276.141,100.013 276.69,99.422C277.24,98.831 277.892,98.376 278.647,98.057C279.4,97.736 280.229,97.577 281.131,97.577C282.032,97.577 282.865,97.736 283.628,98.057C284.391,98.376 285.042,98.831 285.583,99.422C286.125,100.013 286.547,100.722 286.851,101.549C287.153,102.378 287.306,103.3 287.306,104.317Z" style="fill:rgb(35,31,32);fill-rule:nonzero;"/>
        <path d="M288.371,101.34L290.782,100.135L290.782,92.165L293.759,91.673L293.759,98.635L295.529,97.725L296.465,99.618L293.759,100.996L293.759,106.408C293.759,106.769 293.787,107.072 293.845,107.318C293.902,107.564 294.005,107.773 294.152,107.945C294.3,108.118 294.5,108.249 294.755,108.338C295.009,108.429 295.333,108.499 295.727,108.548L295.309,111.008C294.423,110.992 293.689,110.893 293.106,110.713C292.524,110.533 292.062,110.274 291.717,109.938C291.372,109.602 291.13,109.184 290.991,108.683C290.852,108.183 290.782,107.613 290.782,106.973L290.782,102.497L289.33,103.234L288.371,101.34Z" style="fill:rgb(35,31,32);fill-rule:nonzero;"/>
        <path d="M306.336,103.062C306.336,102.653 306.278,102.262 306.164,101.894C306.049,101.525 305.881,101.205 305.659,100.934C305.439,100.664 305.167,100.451 304.848,100.295C304.527,100.14 304.147,100.062 303.704,100.062C303.244,100.062 302.843,100.148 302.498,100.319C302.154,100.492 301.862,100.718 301.625,100.996C301.387,101.275 301.202,101.594 301.071,101.956C300.94,102.316 300.851,102.685 300.801,103.062L306.336,103.062ZM297.701,104.39C297.701,103.259 297.869,102.267 298.206,101.414C298.542,100.562 298.988,99.853 299.546,99.286C300.104,98.721 300.743,98.295 301.465,98.008C302.187,97.721 302.925,97.577 303.679,97.577C305.45,97.577 306.832,98.127 307.824,99.225C308.816,100.324 309.313,101.963 309.313,104.145C309.313,104.309 309.309,104.494 309.3,104.698C309.292,104.903 309.279,105.088 309.264,105.252L300.776,105.252C300.858,106.285 301.223,107.085 301.871,107.65C302.519,108.216 303.458,108.499 304.688,108.499C305.409,108.499 306.069,108.433 306.668,108.302C307.267,108.171 307.738,108.032 308.082,107.883L308.477,110.319C308.312,110.402 308.086,110.488 307.8,110.578C307.513,110.668 307.185,110.75 306.815,110.824C306.446,110.897 306.049,110.959 305.622,111.008C305.196,111.057 304.762,111.082 304.318,111.082C303.188,111.082 302.203,110.914 301.367,110.578C300.53,110.242 299.842,109.774 299.301,109.175C298.759,108.577 298.357,107.872 298.095,107.06C297.832,106.248 297.701,105.359 297.701,104.39Z" style="fill:rgb(35,31,32);fill-rule:nonzero;"/>
        <path d="M311.44,104.341C311.44,103.39 311.588,102.501 311.884,101.672C312.179,100.845 312.601,100.127 313.15,99.521C313.699,98.914 314.368,98.438 315.155,98.094C315.942,97.749 316.828,97.577 317.812,97.577C319.025,97.577 320.174,97.798 321.256,98.241L320.616,100.677C320.272,100.529 319.882,100.406 319.448,100.308C319.013,100.209 318.55,100.16 318.058,100.16C316.894,100.16 316.008,100.525 315.401,101.254C314.794,101.984 314.491,103.013 314.491,104.341C314.491,105.621 314.777,106.633 315.352,107.379C315.926,108.126 316.894,108.499 318.255,108.499C318.763,108.499 319.264,108.45 319.755,108.351C320.247,108.253 320.674,108.129 321.034,107.982L321.453,110.442C321.124,110.606 320.629,110.754 319.965,110.885C319.3,111.016 318.615,111.082 317.91,111.082C316.812,111.082 315.856,110.914 315.045,110.578C314.232,110.242 313.56,109.774 313.027,109.175C312.494,108.577 312.097,107.864 311.834,107.035C311.571,106.208 311.44,105.309 311.44,104.341Z" style="fill:rgb(35,31,32);fill-rule:nonzero;"/>
        <path d="M333.358,99.987C333.03,100.332 332.6,100.816 332.067,101.439C331.534,102.062 330.964,102.754 330.357,103.517C329.75,104.28 329.14,105.076 328.524,105.904C327.909,106.732 327.355,107.523 326.864,108.278L333.506,108.278L333.506,110.762L323.272,110.762L323.272,108.917C323.633,108.261 324.085,107.547 324.626,106.777C325.167,106.006 325.725,105.231 326.299,104.452C326.872,103.673 327.442,102.931 328.008,102.226C328.574,101.521 329.078,100.906 329.522,100.381L323.593,100.381L323.593,97.897L333.358,97.897L333.358,99.987Z" style="fill:rgb(35,31,32);fill-rule:nonzero;"/>
        <path d="M336.013,98.315C336.586,98.151 337.332,97.995 338.251,97.848C339.169,97.7 340.186,97.626 341.302,97.626C342.351,97.626 343.229,97.77 343.934,98.057C344.639,98.344 345.2,98.745 345.619,99.262C346.037,99.778 346.332,100.402 346.504,101.131C346.677,101.861 346.763,102.661 346.763,103.53L346.763,110.762L343.786,110.762L343.786,103.997C343.786,103.308 343.74,102.722 343.65,102.238C343.561,101.754 343.413,101.361 343.208,101.057C343.003,100.755 342.724,100.533 342.371,100.394C342.019,100.255 341.588,100.185 341.08,100.185C340.702,100.185 340.309,100.209 339.899,100.258C339.489,100.308 339.186,100.349 338.989,100.381L338.989,110.762L336.013,110.762L336.013,98.315Z" style="fill:rgb(35,31,32);fill-rule:nonzero;"/>
        <path d="M357.778,103.062C357.778,102.653 357.721,102.262 357.606,101.894C357.491,101.525 357.323,101.205 357.102,100.934C356.881,100.664 356.609,100.451 356.29,100.295C355.97,100.14 355.589,100.062 355.147,100.062C354.687,100.062 354.285,100.148 353.94,100.319C353.597,100.492 353.305,100.718 353.067,100.996C352.829,101.275 352.645,101.594 352.514,101.956C352.383,102.316 352.293,102.685 352.243,103.062L357.778,103.062ZM349.144,104.39C349.144,103.259 349.312,102.267 349.648,101.414C349.984,100.562 350.431,99.853 350.988,99.286C351.546,98.721 352.186,98.295 352.907,98.008C353.629,97.721 354.367,97.577 355.121,97.577C356.893,97.577 358.274,98.127 359.267,99.225C360.259,100.324 360.755,101.963 360.755,104.145C360.755,104.309 360.751,104.494 360.742,104.698C360.734,104.903 360.722,105.088 360.706,105.252L352.219,105.252C352.301,106.285 352.665,107.085 353.314,107.65C353.961,108.216 354.9,108.499 356.13,108.499C356.852,108.499 357.512,108.433 358.11,108.302C358.709,108.171 359.181,108.032 359.524,107.883L359.919,110.319C359.754,110.402 359.528,110.488 359.242,110.578C358.955,110.668 358.627,110.75 358.258,110.824C357.889,110.897 357.491,110.959 357.064,111.008C356.639,111.057 356.204,111.082 355.761,111.082C354.63,111.082 353.646,110.914 352.81,110.578C351.973,110.242 351.284,109.774 350.743,109.175C350.201,108.577 349.8,107.872 349.537,107.06C349.274,106.248 349.144,105.359 349.144,104.39Z" style="fill:rgb(35,31,32);fill-rule:nonzero;"/>
        <path d="M365.69,103.997C365.69,105.26 365.965,106.182 366.515,106.764C367.063,107.347 367.772,107.638 368.643,107.638C369.117,107.638 369.564,107.573 369.982,107.441C370.401,107.31 370.741,107.154 371.004,106.973L371.004,100.308C370.79,100.258 370.528,100.213 370.217,100.172C369.905,100.132 369.512,100.11 369.036,100.11C367.953,100.11 367.125,100.468 366.551,101.18C365.977,101.894 365.69,102.833 365.69,103.997ZM373.98,109.459C373.98,111.508 373.46,113.008 372.418,113.961C371.377,114.911 369.782,115.387 367.634,115.387C366.847,115.387 366.079,115.321 365.333,115.19C364.587,115.058 363.91,114.886 363.304,114.673L363.845,112.139C364.353,112.352 364.932,112.525 365.579,112.656C366.227,112.788 366.929,112.853 367.683,112.853C368.88,112.853 369.732,112.607 370.241,112.115C370.749,111.623 371.004,110.893 371.004,109.925L371.004,109.433C370.709,109.582 370.318,109.729 369.835,109.877C369.352,110.024 368.798,110.098 368.175,110.098C367.354,110.098 366.604,109.966 365.924,109.705C365.243,109.442 364.661,109.056 364.178,108.548C363.693,108.04 363.316,107.404 363.046,106.641C362.775,105.879 362.64,104.998 362.64,103.997C362.64,103.062 362.783,102.201 363.07,101.414C363.357,100.627 363.775,99.955 364.325,99.398C364.874,98.84 365.543,98.405 366.33,98.094C367.117,97.782 368.011,97.626 369.011,97.626C369.978,97.626 370.896,97.7 371.767,97.848C372.636,97.995 373.373,98.151 373.98,98.315L373.98,109.459Z" style="fill:rgb(35,31,32);fill-rule:nonzero;"/>
        <path d="M385.722,104.317C385.722,103.038 385.447,102.025 384.897,101.279C384.348,100.533 383.582,100.16 382.598,100.16C381.613,100.16 380.847,100.533 380.298,101.279C379.748,102.025 379.474,103.038 379.474,104.317C379.474,105.613 379.748,106.637 380.298,107.392C380.847,108.146 381.613,108.523 382.598,108.523C383.582,108.523 384.348,108.146 384.897,107.392C385.447,106.637 385.722,105.613 385.722,104.317ZM388.772,104.317C388.772,105.334 388.625,106.26 388.329,107.096C388.034,107.933 387.616,108.646 387.075,109.237C386.533,109.828 385.882,110.287 385.119,110.615C384.356,110.942 383.516,111.106 382.598,111.106C381.679,111.106 380.843,110.942 380.089,110.615C379.334,110.287 378.686,109.828 378.144,109.237C377.603,108.646 377.182,107.933 376.878,107.096C376.574,106.26 376.423,105.334 376.423,104.317C376.423,103.3 376.574,102.378 376.878,101.549C377.182,100.722 377.607,100.013 378.157,99.422C378.707,98.831 379.358,98.376 380.113,98.057C380.867,97.736 381.695,97.577 382.598,97.577C383.499,97.577 384.332,97.736 385.095,98.057C385.857,98.376 386.509,98.831 387.05,99.422C387.592,100.013 388.014,100.722 388.317,101.549C388.62,102.378 388.772,103.3 388.772,104.317Z" style="fill:rgb(35,31,32);fill-rule:nonzero;"/>
        <path d="M106.245,82.417L106.245,65.369L117.019,65.369L117.019,68.001L109.344,68.001L109.344,72.355L116.158,72.355L116.158,74.987L109.344,74.987L109.344,82.417L106.245,82.417Z" style="fill:rgb(35,31,32);fill-rule:nonzero;"/>
        <path d="M129.492,82.023C128.918,82.17 128.171,82.322 127.253,82.478C126.335,82.634 125.326,82.712 124.227,82.712C123.194,82.712 122.329,82.564 121.632,82.269C120.935,81.974 120.377,81.564 119.959,81.039C119.541,80.514 119.241,79.887 119.061,79.157C118.88,78.427 118.791,77.628 118.791,76.758L118.791,69.551L121.767,69.551L121.767,76.291C121.767,77.669 121.968,78.653 122.37,79.243C122.772,79.834 123.473,80.129 124.473,80.129C124.834,80.129 125.215,80.113 125.617,80.08C126.019,80.047 126.318,80.006 126.515,79.957L126.515,69.551L129.492,69.551L129.492,82.023Z" style="fill:rgb(35,31,32);fill-rule:nonzero;"/>
        <path d="M132.861,69.969C133.436,69.805 134.182,69.649 135.1,69.502C136.019,69.354 137.035,69.28 138.15,69.28C139.2,69.28 140.077,69.424 140.783,69.711C141.488,69.998 142.05,70.399 142.468,70.916C142.886,71.433 143.181,72.056 143.354,72.786C143.525,73.516 143.612,74.315 143.612,75.184L143.612,82.417L140.635,82.417L140.635,75.651C140.635,74.963 140.59,74.377 140.5,73.893C140.41,73.409 140.262,73.016 140.057,72.712C139.852,72.409 139.573,72.187 139.221,72.047C138.868,71.909 138.437,71.838 137.929,71.838C137.552,71.838 137.158,71.863 136.748,71.912C136.338,71.961 136.035,72.003 135.838,72.035L135.838,82.417L132.861,82.417L132.861,69.969Z" style="fill:rgb(35,31,32);fill-rule:nonzero;"/>
        <path d="M149.269,75.947C149.269,77.259 149.581,78.288 150.204,79.034C150.827,79.78 151.688,80.153 152.787,80.153C153.263,80.153 153.669,80.133 154.005,80.092C154.341,80.051 154.616,80.006 154.829,79.957L154.829,72.577C154.566,72.396 154.218,72.228 153.783,72.072C153.349,71.917 152.885,71.838 152.394,71.838C151.311,71.838 150.52,72.208 150.02,72.945C149.519,73.684 149.269,74.684 149.269,75.947ZM157.806,82.023C157.215,82.204 156.473,82.367 155.579,82.515C154.685,82.663 153.747,82.736 152.763,82.736C151.746,82.736 150.835,82.58 150.032,82.269C149.228,81.958 148.544,81.511 147.978,80.928C147.412,80.346 146.977,79.641 146.674,78.813C146.37,77.985 146.219,77.054 146.219,76.021C146.219,75.004 146.346,74.082 146.6,73.253C146.855,72.425 147.228,71.715 147.72,71.125C148.211,70.535 148.81,70.08 149.515,69.76C150.22,69.44 151.032,69.28 151.951,69.28C152.574,69.28 153.123,69.354 153.599,69.502C154.074,69.649 154.484,69.813 154.829,69.994L154.829,63.819L157.806,63.327L157.806,82.023Z" style="fill:rgb(35,31,32);fill-rule:nonzero;"/>
        <path d="M171.754,82.023C171.18,82.17 170.434,82.322 169.515,82.478C168.597,82.634 167.588,82.712 166.489,82.712C165.456,82.712 164.591,82.564 163.894,82.269C163.197,81.974 162.64,81.564 162.221,81.039C161.803,80.514 161.503,79.887 161.323,79.157C161.143,78.427 161.053,77.628 161.053,76.758L161.053,69.551L164.029,69.551L164.029,76.291C164.029,77.669 164.23,78.653 164.632,79.243C165.034,79.834 165.735,80.129 166.735,80.129C167.096,80.129 167.477,80.113 167.879,80.08C168.281,80.047 168.581,80.006 168.777,79.957L168.777,69.551L171.754,69.551L171.754,82.023Z" style="fill:rgb(35,31,32);fill-rule:nonzero;"/>
        <path d="M178.518,80.276C179.305,80.276 179.879,80.182 180.24,79.993C180.601,79.805 180.781,79.481 180.781,79.022C180.781,78.595 180.588,78.243 180.203,77.964C179.818,77.685 179.182,77.382 178.297,77.054C177.755,76.857 177.259,76.648 176.809,76.426C176.357,76.205 175.968,75.947 175.64,75.651C175.312,75.357 175.053,75 174.865,74.582C174.676,74.163 174.582,73.651 174.582,73.044C174.582,71.863 175.017,70.933 175.886,70.252C176.755,69.571 177.936,69.231 179.428,69.231C180.183,69.231 180.904,69.301 181.593,69.44C182.282,69.58 182.798,69.715 183.143,69.846L182.602,72.257C182.273,72.109 181.856,71.974 181.347,71.851C180.839,71.728 180.248,71.667 179.576,71.667C178.969,71.667 178.477,71.769 178.1,71.974C177.723,72.179 177.534,72.495 177.534,72.921C177.534,73.134 177.571,73.323 177.645,73.487C177.719,73.651 177.846,73.803 178.026,73.942C178.207,74.082 178.444,74.221 178.74,74.36C179.035,74.5 179.396,74.643 179.822,74.791C180.527,75.053 181.126,75.312 181.618,75.565C182.11,75.82 182.516,76.107 182.835,76.426C183.155,76.746 183.389,77.111 183.537,77.521C183.684,77.931 183.758,78.423 183.758,78.997C183.758,80.227 183.303,81.158 182.393,81.789C181.482,82.42 180.183,82.736 178.494,82.736C177.362,82.736 176.452,82.642 175.763,82.454C175.074,82.265 174.59,82.113 174.312,81.999L174.828,79.514C175.271,79.694 175.8,79.867 176.415,80.03C177.03,80.194 177.731,80.276 178.518,80.276Z" style="fill:rgb(35,31,32);fill-rule:nonzero;"/>
        <path d="M195.517,71.642C195.188,71.986 194.758,72.47 194.225,73.093C193.692,73.717 193.122,74.409 192.515,75.172C191.908,75.935 191.297,76.73 190.682,77.558C190.067,78.386 189.514,79.178 189.022,79.932L195.664,79.932L195.664,82.417L185.431,82.417L185.431,80.571C185.791,79.916 186.242,79.202 186.784,78.431C187.325,77.661 187.882,76.886 188.456,76.107C189.03,75.328 189.6,74.586 190.166,73.88C190.732,73.175 191.236,72.561 191.679,72.035L185.751,72.035L185.751,69.551L195.517,69.551L195.517,71.642Z" style="fill:rgb(35,31,32);fill-rule:nonzero;"/>
        <path d="M205.824,74.717C205.824,74.307 205.766,73.917 205.651,73.548C205.537,73.179 205.369,72.859 205.147,72.589C204.926,72.318 204.655,72.106 204.335,71.949C204.016,71.794 203.634,71.715 203.191,71.715C202.732,71.715 202.331,71.802 201.986,71.974C201.642,72.146 201.351,72.372 201.113,72.65C200.875,72.929 200.69,73.249 200.559,73.61C200.428,73.971 200.338,74.34 200.289,74.717L205.824,74.717ZM197.189,76.045C197.189,74.914 197.357,73.921 197.693,73.068C198.029,72.216 198.477,71.506 199.034,70.94C199.591,70.375 200.231,69.949 200.953,69.662C201.674,69.375 202.413,69.231 203.167,69.231C204.938,69.231 206.319,69.781 207.312,70.879C208.304,71.978 208.8,73.618 208.8,75.799C208.8,75.963 208.796,76.148 208.788,76.353C208.78,76.558 208.767,76.742 208.751,76.906L200.264,76.906C200.346,77.94 200.711,78.739 201.359,79.305C202.006,79.871 202.945,80.153 204.175,80.153C204.897,80.153 205.557,80.088 206.156,79.957C206.754,79.825 207.226,79.686 207.57,79.538L207.964,81.974C207.8,82.056 207.574,82.142 207.288,82.232C207.001,82.322 206.672,82.404 206.303,82.478C205.935,82.552 205.537,82.613 205.11,82.663C204.684,82.712 204.25,82.736 203.807,82.736C202.675,82.736 201.691,82.568 200.855,82.232C200.018,81.896 199.329,81.429 198.788,80.83C198.247,80.232 197.845,79.526 197.583,78.714C197.32,77.902 197.189,77.013 197.189,76.045Z" style="fill:rgb(35,31,32);fill-rule:nonzero;"/>
        <path d="M219.649,82.417L219.649,65.369L230.596,65.369L230.596,68.001L222.749,68.001L222.749,72.208L229.735,72.208L229.735,74.791L222.749,74.791L222.749,79.784L231.187,79.784L231.187,82.417L219.649,82.417Z" style="fill:rgb(35,31,32);fill-rule:nonzero;"/>
        <path d="M244.027,82.023C243.453,82.17 242.707,82.322 241.789,82.478C240.87,82.634 239.861,82.712 238.763,82.712C237.73,82.712 236.864,82.564 236.168,82.269C235.471,81.974 234.913,81.564 234.495,81.039C234.077,80.514 233.777,79.887 233.597,79.157C233.416,78.427 233.326,77.628 233.326,76.758L233.326,69.551L236.303,69.551L236.303,76.291C236.303,77.669 236.504,78.653 236.905,79.243C237.308,79.834 238.009,80.129 239.009,80.129C239.369,80.129 239.751,80.113 240.153,80.08C240.555,80.047 240.855,80.006 241.051,79.957L241.051,69.551L244.027,69.551L244.027,82.023Z" style="fill:rgb(35,31,32);fill-rule:nonzero;"/>
        <path d="M254.729,72.232C254.482,72.15 254.142,72.064 253.707,71.974C253.273,71.884 252.769,71.838 252.194,71.838C251.866,71.838 251.518,71.872 251.148,71.937C250.78,72.003 250.522,72.06 250.374,72.109L250.374,82.417L247.398,82.417L247.398,70.166C247.972,69.953 248.689,69.752 249.55,69.563C250.411,69.375 251.366,69.28 252.416,69.28C252.612,69.28 252.842,69.293 253.105,69.317C253.367,69.342 253.629,69.375 253.892,69.416C254.154,69.457 254.408,69.506 254.654,69.563C254.9,69.621 255.098,69.674 255.245,69.723L254.729,72.232Z" style="fill:rgb(35,31,32);fill-rule:nonzero;"/>
        <path d="M265.503,75.971C265.503,74.692 265.229,73.68 264.679,72.933C264.13,72.187 263.363,71.814 262.379,71.814C261.396,71.814 260.627,72.187 260.079,72.933C259.528,73.68 259.255,74.692 259.255,75.971C259.255,77.267 259.528,78.292 260.079,79.046C260.627,79.801 261.396,80.178 262.379,80.178C263.363,80.178 264.13,79.801 264.679,79.046C265.229,78.292 265.503,77.267 265.503,75.971ZM268.554,75.971C268.554,76.988 268.406,77.915 268.111,78.751C267.815,79.587 267.397,80.301 266.856,80.891C266.315,81.482 265.663,81.941 264.9,82.269C264.138,82.597 263.297,82.761 262.379,82.761C261.459,82.761 260.624,82.597 259.87,82.269C259.114,81.941 258.467,81.482 257.927,80.891C257.385,80.301 256.963,79.587 256.659,78.751C256.355,77.915 256.204,76.988 256.204,75.971C256.204,74.955 256.355,74.032 256.659,73.204C256.963,72.376 257.389,71.667 257.939,71.076C258.488,70.485 259.14,70.03 259.894,69.711C260.648,69.391 261.476,69.231 262.379,69.231C263.281,69.231 264.113,69.391 264.876,69.711C265.639,70.03 266.29,70.485 266.832,71.076C267.373,71.667 267.795,72.376 268.099,73.204C268.401,74.032 268.554,74.955 268.554,75.971Z" style="fill:rgb(35,31,32);fill-rule:nonzero;"/>
        <path d="M279.845,76.045C279.845,74.717 279.545,73.684 278.947,72.945C278.348,72.208 277.385,71.838 276.057,71.838C275.777,71.838 275.486,71.851 275.183,71.876C274.879,71.9 274.58,71.954 274.285,72.035L274.285,79.391C274.547,79.571 274.896,79.739 275.331,79.895C275.765,80.051 276.229,80.129 276.721,80.129C277.803,80.129 278.594,79.76 279.095,79.022C279.595,78.284 279.845,77.292 279.845,76.045ZM282.896,75.996C282.896,76.98 282.768,77.882 282.514,78.702C282.26,79.522 281.895,80.227 281.419,80.817C280.943,81.408 280.349,81.867 279.636,82.195C278.922,82.523 278.114,82.687 277.213,82.687C276.605,82.687 276.048,82.613 275.54,82.466C275.031,82.318 274.613,82.154 274.285,81.974L274.285,86.967L271.309,86.967L271.309,69.969C271.915,69.805 272.661,69.649 273.547,69.502C274.433,69.354 275.367,69.28 276.352,69.28C277.368,69.28 278.278,69.436 279.082,69.748C279.886,70.059 280.57,70.506 281.136,71.088C281.702,71.67 282.137,72.376 282.44,73.204C282.743,74.032 282.896,74.963 282.896,75.996Z" style="fill:rgb(35,31,32);fill-rule:nonzero;"/>
        <path d="M293.596,74.717C293.596,74.307 293.538,73.917 293.424,73.548C293.309,73.179 293.141,72.859 292.919,72.589C292.698,72.318 292.428,72.106 292.107,71.949C291.788,71.794 291.406,71.715 290.964,71.715C290.504,71.715 290.103,71.802 289.759,71.974C289.414,72.146 289.123,72.372 288.885,72.65C288.647,72.929 288.463,73.249 288.331,73.61C288.2,73.971 288.11,74.34 288.061,74.717L293.596,74.717ZM284.961,76.045C284.961,74.914 285.129,73.921 285.466,73.068C285.802,72.216 286.249,71.506 286.807,70.94C287.363,70.375 288.003,69.949 288.726,69.662C289.446,69.375 290.185,69.231 290.939,69.231C292.71,69.231 294.092,69.781 295.084,70.879C296.076,71.978 296.572,73.618 296.572,75.799C296.572,75.963 296.568,76.148 296.561,76.353C296.552,76.558 296.539,76.742 296.523,76.906L288.036,76.906C288.118,77.94 288.483,78.739 289.131,79.305C289.778,79.871 290.718,80.153 291.947,80.153C292.669,80.153 293.329,80.088 293.928,79.957C294.526,79.825 294.998,79.686 295.343,79.538L295.736,81.974C295.572,82.056 295.347,82.142 295.06,82.232C294.772,82.322 294.444,82.404 294.075,82.478C293.707,82.552 293.309,82.613 292.883,82.663C292.456,82.712 292.022,82.736 291.579,82.736C290.447,82.736 289.463,82.568 288.627,82.232C287.79,81.896 287.102,81.429 286.561,80.83C286.02,80.232 285.617,79.526 285.355,78.714C285.093,77.902 284.961,77.013 284.961,76.045Z" style="fill:rgb(35,31,32);fill-rule:nonzero;"/>
        <path d="M302.747,65.787C302.747,66.345 302.566,66.788 302.206,67.115C301.845,67.443 301.419,67.607 300.927,67.607C300.418,67.607 299.983,67.443 299.623,67.115C299.262,66.788 299.082,66.345 299.082,65.787C299.082,65.213 299.262,64.762 299.623,64.434C299.983,64.106 300.418,63.942 300.927,63.942C301.419,63.942 301.845,64.106 302.206,64.434C302.566,64.762 302.747,65.213 302.747,65.787ZM297.803,86.992C297.589,86.992 297.29,86.971 296.904,86.931C296.52,86.89 296.179,86.812 295.884,86.697L296.277,84.262C296.638,84.376 297.073,84.434 297.581,84.434C298.27,84.434 298.753,84.233 299.032,83.831C299.312,83.429 299.45,82.826 299.45,82.023L299.45,69.551L302.427,69.551L302.427,82.072C302.427,83.745 302.029,84.983 301.234,85.787C300.439,86.59 299.295,86.992 297.803,86.992Z" style="fill:rgb(35,31,32);fill-rule:nonzero;"/>
        <path d="M309.167,80.276C309.954,80.276 310.528,80.182 310.89,79.993C311.25,79.805 311.431,79.481 311.431,79.022C311.431,78.595 311.237,78.243 310.853,77.964C310.467,77.685 309.831,77.382 308.946,77.054C308.404,76.857 307.908,76.648 307.458,76.426C307.007,76.205 306.617,75.947 306.289,75.651C305.961,75.357 305.702,75 305.515,74.582C305.325,74.163 305.231,73.651 305.231,73.044C305.231,71.863 305.666,70.933 306.535,70.252C307.404,69.571 308.585,69.231 310.077,69.231C310.832,69.231 311.554,69.301 312.242,69.44C312.931,69.58 313.447,69.715 313.792,69.846L313.251,72.257C312.923,72.109 312.505,71.974 311.996,71.851C311.488,71.728 310.897,71.667 310.226,71.667C309.618,71.667 309.126,71.769 308.749,71.974C308.372,72.179 308.184,72.495 308.184,72.921C308.184,73.134 308.221,73.323 308.294,73.487C308.368,73.651 308.495,73.803 308.676,73.942C308.855,74.082 309.094,74.221 309.389,74.36C309.684,74.5 310.045,74.643 310.471,74.791C311.176,75.053 311.775,75.312 312.267,75.565C312.759,75.82 313.165,76.107 313.484,76.426C313.805,76.746 314.038,77.111 314.186,77.521C314.333,77.931 314.407,78.423 314.407,78.997C314.407,80.227 313.952,81.158 313.042,81.789C312.132,82.42 310.832,82.736 309.143,82.736C308.011,82.736 307.101,82.642 306.412,82.454C305.724,82.265 305.239,82.113 304.961,81.999L305.478,79.514C305.92,79.694 306.449,79.867 307.064,80.03C307.679,80.194 308.38,80.276 309.167,80.276Z" style="fill:rgb(35,31,32);fill-rule:nonzero;"/>
        <path d="M319.844,74.569C320.221,74.175 320.622,73.753 321.049,73.302C321.476,72.852 321.894,72.4 322.304,71.949C322.714,71.499 323.104,71.064 323.473,70.646C323.841,70.227 324.157,69.862 324.419,69.551L327.938,69.551C327.119,70.469 326.256,71.42 325.348,72.404C324.439,73.388 323.527,74.348 322.611,75.283C323.102,75.693 323.617,76.189 324.157,76.771C324.697,77.353 325.221,77.972 325.729,78.628C326.236,79.284 326.71,79.94 327.152,80.596C327.594,81.253 327.963,81.859 328.257,82.417L324.813,82.417C324.518,81.908 324.177,81.375 323.792,80.817C323.406,80.26 322.992,79.719 322.55,79.194C322.106,78.669 321.655,78.173 321.196,77.706C320.737,77.238 320.286,76.841 319.844,76.513L319.844,82.417L316.867,82.417L316.867,63.819L319.844,63.327L319.844,74.569Z" style="fill:rgb(35,31,32);fill-rule:nonzero;"/>
        <path d="M333.226,82.417L330.249,82.417L330.249,69.551L333.226,69.551L333.226,82.417ZM333.546,65.787C333.546,66.345 333.365,66.788 333.004,67.115C332.644,67.443 332.217,67.607 331.726,67.607C331.217,67.607 330.782,67.443 330.421,67.115C330.061,66.788 329.88,66.345 329.88,65.787C329.88,65.213 330.061,64.762 330.421,64.434C330.782,64.106 331.217,63.942 331.726,63.942C332.217,63.942 332.644,64.106 333.004,64.434C333.365,64.762 333.546,65.213 333.546,65.787Z" style="fill:rgb(35,31,32);fill-rule:nonzero;"/>
        <path d="M344.222,74.717C344.222,74.307 344.164,73.917 344.049,73.548C343.935,73.179 343.767,72.859 343.545,72.589C343.323,72.318 343.053,72.106 342.733,71.949C342.413,71.794 342.032,71.715 341.589,71.715C341.13,71.715 340.729,71.802 340.384,71.974C340.039,72.146 339.748,72.372 339.511,72.65C339.272,72.929 339.088,73.249 338.957,73.61C338.825,73.971 338.735,74.34 338.687,74.717L344.222,74.717ZM335.587,76.045C335.587,74.914 335.755,73.921 336.091,73.068C336.427,72.216 336.874,71.506 337.432,70.94C337.989,70.375 338.629,69.949 339.351,69.662C340.072,69.375 340.811,69.231 341.564,69.231C343.336,69.231 344.717,69.781 345.71,70.879C346.702,71.978 347.198,73.618 347.198,75.799C347.198,75.963 347.193,76.148 347.186,76.353C347.178,76.558 347.165,76.742 347.148,76.906L338.662,76.906C338.744,77.94 339.108,78.739 339.757,79.305C340.404,79.871 341.343,80.153 342.573,80.153C343.295,80.153 343.955,80.088 344.554,79.957C345.152,79.825 345.624,79.686 345.968,79.538L346.361,81.974C346.197,82.056 345.972,82.142 345.686,82.232C345.398,82.322 345.07,82.404 344.701,82.478C344.332,82.552 343.935,82.613 343.508,82.663C343.081,82.712 342.647,82.736 342.204,82.736C341.072,82.736 340.089,82.568 339.252,82.232C338.416,81.896 337.727,81.429 337.186,80.83C336.645,80.232 336.242,79.526 335.98,78.714C335.718,77.902 335.587,77.013 335.587,76.045Z" style="fill:rgb(35,31,32);fill-rule:nonzero;"/>
    </g>
</svg>
