<?xml version="1.0" encoding="UTF-8" standalone="no"?>
<!DOCTYPE svg PUBLIC "-//W3C//DTD SVG 1.1//EN" "http://www.w3.org/Graphics/SVG/1.1/DTD/svg11.dtd">
<svg width="100%" height="100%" viewBox="0 0 317 86" version="1.1" xmlns="http://www.w3.org/2000/svg" xmlns:xlink="http://www.w3.org/1999/xlink" xml:space="preserve" xmlns:serif="http://www.serif.com/" style="fill-rule:evenodd;clip-rule:evenodd;stroke-linejoin:round;stroke-miterlimit:2;">
    <g transform="matrix(1,0,0,1,-445.465,-47)">
        <path d="M596.685,93.643C595.806,93.701 595.007,93.811 594.286,93.975L594.286,110.777L597.386,110.777L597.386,104.775L598.935,104.775C600.181,104.775 601.288,104.668 602.257,104.455C603.224,104.242 604.042,103.91 604.716,103.457C605.388,103.008 605.901,102.424 606.253,101.711C606.606,100.998 606.782,100.143 606.782,99.141C606.782,97.223 606.122,95.813 604.802,94.91C603.481,94.008 601.583,93.557 599.106,93.557C598.37,93.557 597.562,93.586 596.685,93.643ZM600.989,96.373C601.507,96.463 601.952,96.615 602.331,96.828C602.706,97.041 603.001,97.336 603.216,97.713C603.429,98.092 603.534,98.559 603.534,99.117C603.534,100.281 603.134,101.072 602.331,101.49C601.526,101.908 600.378,102.117 598.886,102.117L597.386,102.117L597.386,96.313C597.893,96.264 598.542,96.239 599.329,96.239C599.919,96.239 600.472,96.283 600.989,96.373ZM620.067,101.564C619.765,100.737 619.341,100.028 618.8,99.436C618.259,98.846 617.608,98.391 616.847,98.071C616.083,97.75 615.249,97.59 614.349,97.59C613.446,97.59 612.618,97.75 611.864,98.071C611.11,98.391 610.458,98.846 609.907,99.436C609.358,100.028 608.933,100.737 608.628,101.564C608.325,102.392 608.173,103.314 608.173,104.332C608.173,105.349 608.325,106.275 608.628,107.111C608.933,107.947 609.354,108.66 609.896,109.252C610.437,109.842 611.085,110.301 611.839,110.629C612.595,110.957 613.431,111.121 614.349,111.121C615.267,111.121 616.108,110.957 616.87,110.629C617.632,110.301 618.284,109.842 618.825,109.252C619.366,108.66 619.784,107.947 620.079,107.111C620.376,106.275 620.522,105.349 620.522,104.332C620.522,103.314 620.37,102.392 620.067,101.564ZM616.649,107.406C616.099,108.16 615.333,108.537 614.349,108.537C613.364,108.537 612.599,108.16 612.048,107.406C611.499,106.652 611.224,105.627 611.224,104.332C611.224,103.052 611.499,102.039 612.048,101.293C612.599,100.547 613.364,100.174 614.349,100.174C615.333,100.174 616.099,100.547 616.649,101.293C617.198,102.039 617.474,103.052 617.474,104.332C617.474,105.627 617.198,106.652 616.649,107.406ZM628.085,108.562C627.692,108.513 627.368,108.443 627.112,108.353C626.858,108.263 626.657,108.131 626.511,107.959C626.362,107.787 626.261,107.578 626.202,107.332C626.146,107.086 626.116,106.783 626.116,106.422L626.116,91.688L623.142,92.18L623.142,106.988C623.142,107.627 623.21,108.197 623.351,108.697C623.489,109.199 623.731,109.617 624.075,109.953C624.421,110.289 624.884,110.547 625.466,110.728C626.048,110.908 626.78,111.006 627.667,111.023L628.085,108.562ZM631.976,108.39C631.36,108.226 630.833,108.054 630.39,107.873L629.872,110.359C630.151,110.474 630.636,110.625 631.325,110.814C632.013,111.002 632.923,111.097 634.054,111.097C635.743,111.097 637.044,110.781 637.954,110.15C638.862,109.517 639.319,108.588 639.319,107.357C639.319,106.783 639.245,106.291 639.097,105.881C638.95,105.472 638.716,105.107 638.396,104.787C638.077,104.467 637.671,104.179 637.179,103.926C636.687,103.672 636.089,103.412 635.384,103.15C634.956,103.002 634.595,102.859 634.3,102.72C634.005,102.58 633.767,102.441 633.587,102.301C633.405,102.162 633.278,102.011 633.206,101.847C633.132,101.683 633.095,101.494 633.095,101.281C633.095,100.856 633.284,100.539 633.661,100.334C634.038,100.129 634.53,100.028 635.138,100.028C635.81,100.028 636.399,100.088 636.909,100.211C637.417,100.334 637.835,100.471 638.163,100.617L638.704,98.205C638.358,98.074 637.843,97.94 637.153,97.799C636.466,97.66 635.743,97.59 634.989,97.59C633.497,97.59 632.315,97.932 631.446,98.612C630.577,99.293 630.143,100.225 630.143,101.404C630.143,102.011 630.237,102.523 630.427,102.941C630.614,103.359 630.872,103.717 631.202,104.011C631.528,104.306 631.919,104.564 632.37,104.787C632.819,105.008 633.315,105.217 633.856,105.414C634.743,105.742 635.378,106.045 635.765,106.324C636.149,106.603 636.343,106.955 636.343,107.381C636.343,107.84 636.161,108.164 635.802,108.353C635.44,108.543 634.866,108.636 634.079,108.636C633.292,108.636 632.591,108.554 631.976,108.39ZM644.774,91.688L641.798,92.18L641.798,110.777L644.774,110.777L644.774,104.873C645.218,105.201 645.669,105.599 646.128,106.066C646.587,106.533 647.038,107.029 647.479,107.554C647.923,108.078 648.337,108.621 648.724,109.177C649.108,109.736 649.448,110.269 649.745,110.777L653.188,110.777C652.893,110.22 652.524,109.613 652.083,108.957C651.642,108.301 651.167,107.644 650.659,106.988C650.151,106.332 649.628,105.713 649.089,105.131C648.548,104.549 648.034,104.052 647.542,103.642C648.458,102.707 649.37,101.748 650.278,100.766C651.187,99.781 652.05,98.83 652.868,97.91L649.351,97.91C649.089,98.223 648.772,98.588 648.403,99.006C648.034,99.424 647.643,99.86 647.233,100.311C646.825,100.762 646.405,101.211 645.979,101.662C645.554,102.113 645.151,102.535 644.774,102.929L644.774,91.688ZM657.743,108.279C657.302,108.008 657.079,107.521 657.079,106.816C657.079,106.455 657.161,106.156 657.325,105.918C657.489,105.681 657.708,105.496 657.978,105.365C658.249,105.234 658.552,105.144 658.888,105.093C659.224,105.045 659.556,105.021 659.884,105.021C660.261,105.021 660.604,105.045 660.917,105.093C661.228,105.144 661.466,105.193 661.63,105.242L661.63,108.537C661.153,108.636 660.458,108.685 659.54,108.685C658.786,108.685 658.187,108.551 657.743,108.279ZM656.981,97.787C656.259,97.92 655.71,98.051 655.333,98.182L655.702,100.592C656.062,100.461 656.53,100.348 657.104,100.248C657.679,100.151 658.31,100.102 658.999,100.102C659.507,100.102 659.929,100.166 660.265,100.297C660.601,100.43 660.872,100.614 661.077,100.852C661.282,101.088 661.425,101.363 661.507,101.674C661.589,101.986 661.63,102.314 661.63,102.658L661.63,103.15C661.22,103.052 660.835,102.982 660.474,102.941C660.112,102.9 659.768,102.879 659.44,102.879C658.735,102.879 658.06,102.949 657.411,103.088C656.763,103.228 656.194,103.457 655.702,103.777C655.21,104.097 654.819,104.511 654.534,105.021C654.247,105.529 654.103,106.152 654.103,106.89C654.103,107.66 654.229,108.308 654.483,108.834C654.737,109.359 655.091,109.785 655.542,110.113C655.993,110.441 656.538,110.679 657.179,110.826C657.817,110.974 658.522,111.047 659.294,111.047C660.458,111.047 661.503,110.978 662.431,110.838C663.356,110.699 664.05,110.58 664.509,110.482L664.509,102.683C664.509,101.929 664.423,101.236 664.251,100.606C664.079,99.975 663.792,99.436 663.39,98.994C662.987,98.551 662.45,98.205 661.778,97.959C661.104,97.713 660.276,97.59 659.294,97.59C658.474,97.59 657.702,97.656 656.981,97.787Z" style="fill:rgb(35,31,32);fill-rule:nonzero;"/>
        <path d="M596.696,65.3C595.843,65.358 595.04,65.468 594.286,65.632L594.286,82.433L597.386,82.433L597.386,75.989L599.354,75.989C599.518,75.989 599.714,75.981 599.944,75.964C600.255,76.358 600.591,76.805 600.952,77.304C601.313,77.804 601.677,78.338 602.046,78.904C602.415,79.47 602.78,80.052 603.142,80.65C603.503,81.25 603.839,81.843 604.149,82.433L607.618,82.433C607.323,81.795 606.987,81.142 606.61,80.478C606.231,79.814 605.839,79.166 605.429,78.535C605.018,77.904 604.618,77.316 604.224,76.776C603.831,76.235 603.478,75.776 603.167,75.398C605.444,74.578 606.585,73.012 606.585,70.699C606.585,68.847 605.933,67.469 604.63,66.567C603.327,65.665 601.444,65.214 598.985,65.214C598.312,65.214 597.55,65.243 596.696,65.3ZM600.878,68.031C601.386,68.121 601.825,68.273 602.194,68.486C602.563,68.698 602.847,68.986 603.044,69.347C603.239,69.708 603.339,70.15 603.339,70.675C603.339,71.233 603.239,71.692 603.044,72.053C602.847,72.414 602.556,72.701 602.169,72.914C601.784,73.127 601.306,73.275 600.731,73.357C600.157,73.439 599.493,73.48 598.739,73.48L597.386,73.48L597.386,67.969C597.942,67.92 598.55,67.895 599.206,67.895C599.813,67.895 600.37,67.941 600.878,68.031ZM619.706,69.568L609.94,69.568L609.94,72.053L615.868,72.053C615.425,72.578 614.921,73.193 614.356,73.898C613.79,74.603 613.22,75.345 612.646,76.124C612.071,76.903 611.515,77.677 610.972,78.449C610.433,79.22 609.981,79.933 609.62,80.59L609.62,82.433L619.854,82.433L619.854,79.949L613.212,79.949C613.704,79.195 614.257,78.404 614.872,77.574C615.487,76.747 616.097,75.952 616.704,75.189C617.312,74.427 617.882,73.734 618.415,73.111C618.948,72.487 619.378,72.004 619.706,71.659L619.706,69.568ZM621.812,78.732C622.073,79.543 622.476,80.25 623.017,80.847C623.56,81.445 624.247,81.914 625.083,82.25C625.919,82.586 626.903,82.754 628.036,82.754C628.479,82.754 628.913,82.728 629.339,82.679C629.767,82.631 630.163,82.568 630.532,82.496C630.901,82.422 631.229,82.34 631.517,82.25C631.804,82.16 632.028,82.072 632.192,81.99L631.8,79.556C631.454,79.703 630.983,79.843 630.384,79.974C629.786,80.105 629.126,80.172 628.405,80.172C627.175,80.172 626.235,79.888 625.587,79.322C624.94,78.756 624.575,77.957 624.493,76.924L632.979,76.924C632.997,76.76 633.009,76.574 633.017,76.37C633.024,76.165 633.03,75.981 633.03,75.817C633.03,73.636 632.532,71.995 631.54,70.897C630.548,69.798 629.167,69.248 627.396,69.248C626.642,69.248 625.903,69.392 625.183,69.679C624.46,69.966 623.821,70.392 623.263,70.958C622.706,71.524 622.259,72.233 621.923,73.086C621.585,73.939 621.417,74.931 621.417,76.063C621.417,77.03 621.55,77.92 621.812,78.732ZM624.518,74.734C624.567,74.357 624.657,73.988 624.788,73.627C624.919,73.267 625.104,72.947 625.341,72.668C625.579,72.389 625.87,72.163 626.214,71.99C626.56,71.819 626.962,71.733 627.421,71.733C627.864,71.733 628.245,71.811 628.565,71.967C628.884,72.123 629.155,72.336 629.376,72.606C629.597,72.877 629.767,73.197 629.88,73.566C629.995,73.935 630.052,74.323 630.052,74.734L624.518,74.734ZM635.53,78.707C635.794,79.535 636.19,80.25 636.726,80.847C637.257,81.445 637.929,81.914 638.741,82.25C639.554,82.586 640.509,82.754 641.608,82.754C642.313,82.754 642.997,82.687 643.661,82.556C644.325,82.426 644.821,82.277 645.149,82.113L644.731,79.654C644.37,79.802 643.944,79.926 643.452,80.023C642.96,80.123 642.46,80.172 641.952,80.172C640.591,80.172 639.622,79.799 639.048,79.051C638.476,78.304 638.188,77.293 638.188,76.013C638.188,74.685 638.491,73.656 639.097,72.926C639.704,72.196 640.591,71.831 641.755,71.831C642.247,71.831 642.71,71.881 643.146,71.979C643.579,72.077 643.968,72.199 644.313,72.348L644.952,69.913C643.87,69.47 642.722,69.248 641.509,69.248C640.524,69.248 639.64,69.42 638.853,69.765C638.065,70.109 637.397,70.585 636.847,71.192C636.298,71.799 635.876,72.516 635.581,73.344C635.284,74.173 635.138,75.062 635.138,76.013C635.138,76.981 635.268,77.879 635.53,78.707ZM657.009,69.568L647.243,69.568L647.243,72.053L653.173,72.053C652.729,72.578 652.226,73.193 651.659,73.898C651.093,74.603 650.522,75.345 649.948,76.124C649.376,76.903 648.817,77.677 648.276,78.449C647.735,79.22 647.284,79.933 646.923,80.59L646.923,82.433L657.157,82.433L657.157,79.949L650.515,79.949C651.007,79.195 651.56,78.404 652.175,77.574C652.79,76.747 653.401,75.952 654.009,75.189C654.614,74.427 655.185,73.734 655.718,73.111C656.251,72.487 656.681,72.004 657.009,71.659L657.009,69.568ZM667.454,79.039C666.954,79.777 666.163,80.146 665.081,80.146C664.589,80.146 664.126,80.068 663.69,79.912C663.257,79.758 662.907,79.59 662.646,79.408L662.646,72.053C662.94,71.971 663.239,71.917 663.544,71.893C663.847,71.868 664.138,71.856 664.417,71.856C665.745,71.856 666.708,72.225 667.308,72.963C667.905,73.701 668.206,74.734 668.206,76.063C668.206,77.308 667.954,78.301 667.454,79.039ZM670.8,73.221C670.497,72.393 670.062,71.688 669.497,71.106C668.931,70.524 668.245,70.077 667.442,69.765C666.638,69.454 665.728,69.297 664.712,69.297C663.728,69.297 662.794,69.371 661.907,69.519C661.021,69.667 660.274,69.822 659.669,69.986L659.669,86.984L662.646,86.984L662.646,81.99C662.974,82.172 663.392,82.336 663.899,82.482C664.409,82.631 664.966,82.705 665.571,82.705C666.474,82.705 667.282,82.541 667.995,82.213C668.71,81.885 669.304,81.426 669.778,80.836C670.255,80.246 670.62,79.541 670.874,78.718C671.128,77.898 671.255,76.997 671.255,76.013C671.255,74.98 671.103,74.05 670.8,73.221ZM685.224,73.221C684.919,72.393 684.497,71.684 683.956,71.093C683.415,70.503 682.763,70.048 682.001,69.728C681.237,69.407 680.405,69.248 679.503,69.248C678.601,69.248 677.772,69.407 677.018,69.728C676.265,70.048 675.612,70.503 675.063,71.093C674.513,71.684 674.087,72.393 673.784,73.221C673.479,74.05 673.329,74.972 673.329,75.989C673.329,77.006 673.479,77.931 673.784,78.769C674.087,79.605 674.509,80.318 675.052,80.91C675.593,81.5 676.239,81.959 676.995,82.287C677.749,82.613 678.585,82.777 679.503,82.777C680.421,82.777 681.263,82.613 682.024,82.287C682.788,81.959 683.438,81.5 683.979,80.91C684.522,80.318 684.94,79.605 685.235,78.769C685.53,77.931 685.679,77.006 685.679,75.989C685.679,74.972 685.526,74.05 685.224,73.221ZM681.804,79.064C681.255,79.818 680.487,80.195 679.503,80.195C678.518,80.195 677.753,79.818 677.204,79.064C676.653,78.31 676.38,77.284 676.38,75.989C676.38,74.71 676.653,73.697 677.204,72.951C677.753,72.205 678.518,71.831 679.503,71.831C680.487,71.831 681.255,72.205 681.804,72.951C682.353,73.697 682.628,74.71 682.628,75.989C682.628,77.284 682.353,78.31 681.804,79.064ZM689.532,80.049C688.917,79.885 688.388,79.713 687.946,79.531L687.429,82.015C687.708,82.131 688.192,82.281 688.88,82.47C689.569,82.66 690.479,82.754 691.61,82.754C693.3,82.754 694.601,82.437 695.509,81.806C696.419,81.176 696.874,80.246 696.874,79.015C696.874,78.441 696.802,77.949 696.653,77.539C696.505,77.129 696.272,76.764 695.952,76.444C695.632,76.124 695.228,75.837 694.735,75.583C694.243,75.329 693.643,75.07 692.938,74.808C692.513,74.66 692.151,74.517 691.856,74.377C691.562,74.238 691.323,74.099 691.143,73.959C690.964,73.82 690.837,73.668 690.763,73.504C690.688,73.34 690.651,73.152 690.651,72.938C690.651,72.512 690.841,72.196 691.218,71.99C691.595,71.786 692.087,71.684 692.692,71.684C693.366,71.684 693.956,71.745 694.464,71.868C694.974,71.99 695.392,72.127 695.718,72.274L696.259,69.863C695.915,69.732 695.399,69.597 694.71,69.457C694.022,69.318 693.3,69.248 692.546,69.248C691.054,69.248 689.874,69.589 689.003,70.269C688.134,70.949 687.7,71.881 687.7,73.061C687.7,73.668 687.794,74.181 687.983,74.599C688.171,75.017 688.429,75.374 688.757,75.669C689.085,75.964 689.476,76.222 689.927,76.444C690.378,76.665 690.874,76.874 691.415,77.071C692.3,77.398 692.935,77.703 693.321,77.98C693.706,78.26 693.899,78.613 693.899,79.039C693.899,79.498 693.718,79.822 693.358,80.011C692.997,80.199 692.423,80.295 691.636,80.295C690.849,80.295 690.147,80.213 689.532,80.049ZM707.142,79.039C706.64,79.777 705.849,80.146 704.767,80.146C704.274,80.146 703.812,80.068 703.376,79.912C702.942,79.758 702.593,79.59 702.331,79.408L702.331,72.053C702.626,71.971 702.925,71.917 703.229,71.893C703.532,71.868 703.823,71.856 704.103,71.856C705.431,71.856 706.393,72.225 706.993,72.963C707.591,73.701 707.892,74.734 707.892,76.063C707.892,77.308 707.642,78.301 707.142,79.039ZM710.485,73.221C710.183,72.393 709.747,71.688 709.183,71.106C708.616,70.524 707.933,70.077 707.128,69.765C706.325,69.454 705.413,69.297 704.397,69.297C703.413,69.297 702.479,69.371 701.593,69.519C700.708,69.667 699.96,69.822 699.354,69.986L699.354,86.984L702.331,86.984L702.331,81.99C702.659,82.172 703.077,82.336 703.585,82.482C704.093,82.631 704.651,82.705 705.259,82.705C706.159,82.705 706.968,82.541 707.683,82.213C708.396,81.885 708.989,81.426 709.464,80.836C709.94,80.246 710.306,79.541 710.56,78.718C710.813,77.898 710.94,76.997 710.94,76.013C710.94,74.98 710.79,74.05 710.485,73.221ZM724.909,73.221C724.604,72.393 724.183,71.684 723.642,71.093C723.101,70.503 722.448,70.048 721.687,69.728C720.923,69.407 720.091,69.248 719.19,69.248C718.286,69.248 717.458,69.407 716.704,69.728C715.95,70.048 715.298,70.503 714.749,71.093C714.2,71.684 713.772,72.393 713.47,73.221C713.165,74.05 713.015,74.972 713.015,75.989C713.015,77.006 713.165,77.931 713.47,78.769C713.772,79.605 714.196,80.318 714.737,80.91C715.278,81.5 715.925,81.959 716.681,82.287C717.435,82.613 718.271,82.777 719.19,82.777C720.108,82.777 720.948,82.613 721.71,82.287C722.474,81.959 723.126,81.5 723.667,80.91C724.208,80.318 724.626,79.605 724.921,78.769C725.215,77.931 725.363,77.006 725.363,75.989C725.363,74.972 725.211,74.05 724.909,73.221ZM721.489,79.064C720.94,79.818 720.173,80.195 719.19,80.195C718.206,80.195 717.438,79.818 716.89,79.064C716.339,78.31 716.065,77.284 716.065,75.989C716.065,74.71 716.339,73.697 716.89,72.951C717.438,72.205 718.206,71.831 719.19,71.831C720.173,71.831 720.94,72.205 721.489,72.951C722.038,73.697 722.313,74.71 722.313,75.989C722.313,77.284 722.038,78.31 721.489,79.064ZM732.979,80.22C732.586,80.172 732.26,80.101 732.006,80.011C731.752,79.922 731.551,79.789 731.404,79.617C731.256,79.445 731.154,79.236 731.098,78.99C731.039,78.744 731.01,78.441 731.01,78.08L731.01,63.344L728.035,63.836L728.035,78.646C728.035,79.285 728.104,79.855 728.244,80.355C728.383,80.855 728.625,81.273 728.969,81.609C729.314,81.945 729.777,82.205 730.359,82.385C730.941,82.564 731.674,82.664 732.56,82.679L732.979,80.22ZM738.367,69.568L735.391,69.568L735.391,82.433L738.367,82.433L738.367,69.568ZM738.145,64.451C737.785,64.123 737.357,63.959 736.865,63.959C736.357,63.959 735.924,64.123 735.563,64.451C735.201,64.78 735.021,65.23 735.021,65.804C735.021,66.362 735.201,66.805 735.563,67.133C735.924,67.461 736.357,67.625 736.865,67.625C737.357,67.625 737.785,67.461 738.145,67.133C738.506,66.805 738.688,66.362 738.688,65.804C738.688,65.23 738.506,64.78 738.145,64.451ZM741.678,77.316C741.678,78.17 741.75,78.927 741.898,79.593C742.047,80.258 742.301,80.822 742.662,81.291C743.021,81.758 743.51,82.113 744.125,82.359C744.74,82.605 745.506,82.728 746.424,82.728C747.18,82.728 747.836,82.65 748.393,82.496C748.951,82.34 749.402,82.187 749.746,82.041L749.254,79.679C749.008,79.777 748.676,79.885 748.258,80C747.84,80.113 747.359,80.172 746.818,80.172C746.031,80.172 745.473,79.949 745.145,79.508C744.818,79.064 744.654,78.326 744.654,77.293L744.654,72.053L749.229,72.053L749.229,69.568L744.654,69.568L744.654,65.681L741.678,66.173L741.678,77.316ZM754.764,79.937C754.322,79.666 754.1,79.179 754.1,78.472C754.1,78.113 754.182,77.812 754.346,77.574C754.51,77.338 754.727,77.153 754.998,77.022C755.268,76.891 755.572,76.801 755.908,76.751C756.244,76.702 756.576,76.678 756.904,76.678C757.281,76.678 757.625,76.702 757.938,76.751C758.248,76.801 758.486,76.85 758.652,76.899L758.652,80.195C758.176,80.295 757.479,80.343 756.56,80.343C755.805,80.343 755.207,80.209 754.764,79.937ZM754.002,69.445C753.279,69.577 752.73,69.708 752.354,69.839L752.723,72.25C753.082,72.118 753.551,72.004 754.125,71.905C754.699,71.807 755.33,71.758 756.018,71.758C756.527,71.758 756.949,71.822 757.285,71.954C757.621,72.086 757.893,72.27 758.098,72.508C758.303,72.746 758.445,73.021 758.529,73.332C758.609,73.644 758.652,73.972 758.652,74.316L758.652,74.808C758.24,74.71 757.855,74.64 757.494,74.599C757.133,74.558 756.789,74.537 756.461,74.537C755.756,74.537 755.08,74.607 754.432,74.746C753.785,74.886 753.215,75.114 752.723,75.435C752.23,75.755 751.84,76.169 751.553,76.678C751.266,77.186 751.123,77.808 751.123,78.547C751.123,79.318 751.25,79.967 751.504,80.49C751.758,81.015 752.111,81.441 752.563,81.769C753.014,82.097 753.559,82.336 754.199,82.482C754.838,82.631 755.543,82.705 756.314,82.705C757.479,82.705 758.523,82.635 759.451,82.496C760.377,82.355 761.07,82.236 761.529,82.138L761.529,74.341C761.529,73.586 761.443,72.893 761.27,72.262C761.098,71.631 760.81,71.093 760.41,70.651C760.008,70.208 759.471,69.863 758.799,69.617C758.125,69.371 757.299,69.248 756.314,69.248C755.494,69.248 754.723,69.314 754.002,69.445Z" style="fill:rgb(35,31,32);fill-rule:nonzero;"/>
        <rect x="445.635" y="47.171" width="127.219" height="42.519" style="fill:white;fill-rule:nonzero;"/>
        <rect x="445.635" y="89.521" width="127.219" height="42.348" style="fill:rgb(183,33,49);fill-rule:nonzero;"/>
        <path d="M572.626,131.638L445.866,131.638L445.866,47.4L572.626,47.4L572.626,131.638ZM573.024,47L445.465,47L445.465,132.039L573.024,132.039L573.024,47Z" style="fill:rgb(128,130,133);fill-rule:nonzero;"/>
    </g>
</svg>
