<?xml version="1.0" encoding="UTF-8" standalone="no"?>
<!DOCTYPE svg PUBLIC "-//W3C//DTD SVG 1.1//EN" "http://www.w3.org/Graphics/SVG/1.1/DTD/svg11.dtd">
<svg width="100%" height="100%" viewBox="0 0 387 86" version="1.1" xmlns="http://www.w3.org/2000/svg" xmlns:xlink="http://www.w3.org/1999/xlink" xml:space="preserve" xmlns:serif="http://www.serif.com/" style="fill-rule:evenodd;clip-rule:evenodd;stroke-linejoin:round;stroke-miterlimit:2;">
    <g transform="matrix(1,0,0,1,-818.222,-46.995)">
        <path d="M887.978,110.637C888.831,110.301 889.532,109.829 890.081,109.221C890.63,108.616 891.041,107.903 891.31,107.081C891.582,106.262 891.716,105.36 891.716,104.376L891.716,93.724L888.593,93.724L888.593,104.081C888.593,104.852 888.507,105.512 888.335,106.061C888.162,106.61 887.916,107.057 887.597,107.401C887.277,107.745 886.896,108.001 886.453,108.165C886.009,108.329 885.517,108.411 884.976,108.411C884.435,108.411 883.947,108.329 883.513,108.165C883.078,108.001 882.701,107.745 882.382,107.401C882.062,107.057 881.816,106.61 881.642,106.061C881.47,105.512 881.384,104.852 881.384,104.081L881.384,93.724L878.261,93.724L878.261,104.376C878.261,105.36 878.392,106.262 878.655,107.081C878.917,107.903 879.323,108.616 879.872,109.221C880.422,109.829 881.115,110.301 881.951,110.637C882.787,110.973 883.788,111.141 884.952,111.141C886.116,111.141 887.125,110.973 887.978,110.637ZM895.078,110.772L898.052,110.772L898.052,100.392C898.25,100.358 898.552,100.317 898.963,100.269C899.373,100.22 899.767,100.194 900.144,100.194C900.652,100.194 901.084,100.265 901.437,100.403C901.789,100.542 902.068,100.765 902.273,101.067C902.478,101.37 902.625,101.764 902.714,102.247C902.804,102.731 902.851,103.317 902.851,104.006L902.851,110.772L905.828,110.772L905.828,103.54C905.828,102.67 905.742,101.87 905.568,101.141C905.396,100.411 905.101,99.788 904.683,99.273C904.265,98.755 903.703,98.355 902.998,98.065C902.293,97.78 901.416,97.636 900.367,97.636C899.25,97.636 898.234,97.71 897.316,97.856C896.396,98.005 895.65,98.161 895.078,98.325L895.078,110.772ZM912.052,97.907L909.076,97.907L909.076,110.772L912.052,110.772L912.052,97.907ZM911.832,92.79C911.47,92.462 911.044,92.298 910.552,92.298C910.044,92.298 909.609,92.462 909.248,92.79C908.886,93.118 908.707,93.569 908.707,94.144C908.707,94.7 908.886,95.144 909.248,95.472C909.609,95.798 910.044,95.962 910.552,95.962C911.044,95.962 911.47,95.798 911.832,95.472C912.193,95.144 912.373,94.7 912.373,94.144C912.373,93.569 912.193,93.118 911.832,92.79ZM915.216,107.069C915.478,107.881 915.88,108.586 916.422,109.186C916.963,109.784 917.652,110.251 918.488,110.586C919.324,110.922 920.308,111.092 921.441,111.092L921.759,111.092C921.875,111.092 921.983,111.083 922.08,111.067C921.605,111.493 921.214,111.928 920.912,112.37C920.607,112.813 920.457,113.272 920.457,113.749C920.457,114.405 920.699,114.909 921.181,115.262C921.666,115.614 922.393,115.79 923.361,115.79C923.672,115.79 924.022,115.766 924.406,115.717C924.791,115.667 925.115,115.585 925.379,115.471L925.156,113.477C924.731,113.608 924.354,113.674 924.026,113.674C923.451,113.674 923.164,113.454 923.164,113.01C923.164,112.813 923.246,112.596 923.41,112.358C923.574,112.12 923.779,111.877 924.026,111.633C924.272,111.387 924.533,111.153 924.813,110.932C925.092,110.71 925.354,110.51 925.6,110.329L925.205,107.893C924.861,108.042 924.391,108.18 923.791,108.311C923.192,108.444 922.531,108.508 921.81,108.508C920.58,108.508 919.64,108.225 918.992,107.659C918.343,107.094 917.98,106.293 917.898,105.262L926.387,105.262C926.402,105.098 926.416,104.913 926.424,104.708C926.432,104.502 926.436,104.319 926.436,104.155C926.436,101.973 925.94,100.333 924.947,99.235C923.955,98.136 922.572,97.587 920.8,97.587C920.047,97.587 919.308,97.73 918.586,98.017C917.865,98.304 917.226,98.731 916.668,99.296C916.111,99.862 915.664,100.571 915.328,101.422C914.99,102.276 914.822,103.268 914.822,104.401C914.822,105.368 914.953,106.258 915.216,107.069ZM917.922,103.073C917.97,102.694 918.062,102.325 918.193,101.963C918.324,101.604 918.507,101.284 918.746,101.004C918.984,100.728 919.275,100.501 919.619,100.329C919.964,100.157 920.365,100.071 920.826,100.071C921.269,100.071 921.65,100.149 921.971,100.306C922.291,100.46 922.561,100.673 922.781,100.944C923.004,101.213 923.172,101.534 923.287,101.903C923.401,102.272 923.459,102.663 923.459,103.073L917.922,103.073ZM947.717,110.772L947.717,108.139L939.279,108.139L939.279,103.145L946.266,103.145L946.266,100.564L939.279,100.564L939.279,96.356L947.127,96.356L947.127,93.724L936.18,93.724L936.18,110.772L947.717,110.772ZM960.555,97.907L957.578,97.907L957.578,108.311C957.383,108.362 957.082,108.403 956.68,108.434C956.277,108.467 955.897,108.483 955.537,108.483C954.537,108.483 953.836,108.188 953.434,107.598C953.031,107.008 952.832,106.024 952.832,104.647L952.832,97.907L949.854,97.907L949.854,105.114C949.854,105.983 949.943,106.782 950.125,107.512C950.305,108.243 950.604,108.87 951.022,109.395C951.442,109.918 951.998,110.329 952.695,110.624C953.393,110.918 954.258,111.067 955.291,111.067C956.389,111.067 957.398,110.989 958.317,110.833C959.234,110.678 959.981,110.526 960.555,110.377L960.555,97.907ZM971.781,98.079C971.635,98.03 971.438,97.976 971.192,97.919C970.945,97.862 970.692,97.812 970.43,97.771C970.168,97.73 969.904,97.696 969.643,97.673C969.379,97.648 969.151,97.636 968.953,97.636C967.902,97.636 966.947,97.73 966.088,97.919C965.227,98.108 964.51,98.31 963.936,98.521L963.936,110.772L966.912,110.772L966.912,100.464C967.059,100.415 967.317,100.358 967.686,100.292C968.055,100.228 968.404,100.194 968.733,100.194C969.307,100.194 969.811,100.239 970.246,100.329C970.68,100.419 971.02,100.505 971.266,100.587L971.781,98.079ZM984.641,101.559C984.338,100.731 983.916,100.023 983.375,99.433C982.832,98.841 982.182,98.386 981.418,98.065C980.654,97.747 979.822,97.587 978.922,97.587C978.02,97.587 977.192,97.747 976.436,98.065C975.682,98.386 975.029,98.841 974.481,99.433C973.932,100.023 973.506,100.731 973.203,101.559C972.898,102.387 972.746,103.309 972.746,104.327C972.746,105.344 972.898,106.27 973.203,107.106C973.506,107.942 973.928,108.657 974.469,109.247C975.01,109.836 975.656,110.295 976.412,110.624C977.166,110.952 978.002,111.116 978.922,111.116C979.84,111.116 980.68,110.952 981.443,110.624C982.205,110.295 982.858,109.836 983.398,109.247C983.94,108.657 984.358,107.942 984.652,107.106C984.947,106.27 985.096,105.344 985.096,104.327C985.096,103.309 984.943,102.387 984.641,101.559ZM981.221,107.401C980.672,108.157 979.904,108.534 978.922,108.534C977.938,108.534 977.17,108.157 976.621,107.401C976.07,106.647 975.797,105.622 975.797,104.327C975.797,103.047 976.07,102.034 976.621,101.288C977.17,100.542 977.938,100.169 978.922,100.169C979.904,100.169 980.672,100.542 981.221,101.288C981.77,102.034 982.045,103.047 982.045,104.327C982.045,105.622 981.77,106.647 981.221,107.401ZM995.613,107.376C995.113,108.116 994.322,108.483 993.24,108.483C992.75,108.483 992.285,108.407 991.852,108.251C991.416,108.094 991.067,107.926 990.805,107.745L990.805,100.392C991.1,100.31 991.398,100.255 991.703,100.231C992.006,100.206 992.297,100.194 992.576,100.194C993.904,100.194 994.869,100.564 995.467,101.301C996.065,102.038 996.365,103.073 996.365,104.401C996.365,105.647 996.115,106.639 995.613,107.376ZM998.961,101.559C998.656,100.731 998.223,100.026 997.656,99.444C997.09,98.862 996.404,98.415 995.602,98.103C994.799,97.792 993.889,97.636 992.873,97.636C991.889,97.636 990.953,97.71 990.067,97.856C989.182,98.005 988.436,98.161 987.83,98.325L987.83,115.323L990.805,115.323L990.805,110.329C991.133,110.51 991.551,110.672 992.061,110.821C992.568,110.969 993.127,111.042 993.733,111.042C994.635,111.042 995.442,110.877 996.156,110.551C996.869,110.223 997.463,109.764 997.94,109.172C998.416,108.583 998.779,107.877 999.035,107.057C999.289,106.237 999.416,105.335 999.416,104.352C999.416,103.317 999.264,102.387 998.961,101.559ZM1001.88,107.069C1002.14,107.881 1002.55,108.586 1003.09,109.186C1003.63,109.784 1004.32,110.251 1005.15,110.586C1005.99,110.922 1006.97,111.092 1008.11,111.092C1008.55,111.092 1008.98,111.067 1009.41,111.018C1009.84,110.969 1010.23,110.907 1010.6,110.833C1010.97,110.76 1011.3,110.678 1011.59,110.586C1011.88,110.497 1012.1,110.411 1012.26,110.329L1011.87,107.893C1011.53,108.042 1011.05,108.18 1010.46,108.311C1009.86,108.444 1009.2,108.508 1008.47,108.508C1007.25,108.508 1006.31,108.225 1005.66,107.659C1005.01,107.094 1004.65,106.293 1004.56,105.262L1013.05,105.262C1013.07,105.098 1013.08,104.913 1013.09,104.708C1013.1,104.502 1013.1,104.319 1013.1,104.155C1013.1,101.973 1012.6,100.333 1011.61,99.235C1010.62,98.136 1009.24,97.587 1007.47,97.587C1006.71,97.587 1005.97,97.73 1005.25,98.017C1004.53,98.304 1003.89,98.731 1003.33,99.296C1002.78,99.862 1002.33,100.571 1001.99,101.422C1001.66,102.276 1001.49,103.268 1001.49,104.401C1001.49,105.368 1001.62,106.258 1001.88,107.069ZM1004.59,103.073C1004.64,102.694 1004.73,102.325 1004.86,101.963C1004.99,101.604 1005.18,101.284 1005.41,101.004C1005.65,100.728 1005.94,100.501 1006.29,100.329C1006.63,100.157 1007.03,100.071 1007.49,100.071C1007.93,100.071 1008.31,100.149 1008.63,100.306C1008.96,100.46 1009.22,100.673 1009.45,100.944C1009.67,101.213 1009.84,101.534 1009.95,101.903C1010.07,102.272 1010.12,102.663 1010.12,103.073L1004.59,103.073ZM1017.84,114.141C1018.63,113.338 1019.03,112.1 1019.03,110.428L1019.03,97.907L1016.05,97.907L1016.05,110.377C1016.05,111.182 1015.91,111.784 1015.63,112.186C1015.36,112.586 1014.87,112.788 1014.18,112.788C1013.68,112.788 1013.24,112.731 1012.88,112.616L1012.49,115.053C1012.78,115.167 1013.12,115.245 1013.51,115.286C1013.89,115.327 1014.19,115.348 1014.41,115.348C1015.9,115.348 1017.04,114.946 1017.84,114.141ZM1018.81,92.79C1018.45,92.462 1018.02,92.298 1017.53,92.298C1017.02,92.298 1016.59,92.462 1016.23,92.79C1015.87,93.118 1015.68,93.569 1015.68,94.144C1015.68,94.7 1015.87,95.144 1016.23,95.472C1016.59,95.798 1017.02,95.962 1017.53,95.962C1018.02,95.962 1018.45,95.798 1018.81,95.472C1019.17,95.144 1019.35,94.7 1019.35,94.144C1019.35,93.569 1019.17,93.118 1018.81,92.79ZM1023.64,108.385C1023.03,108.221 1022.5,108.049 1022.05,107.868L1021.54,110.354C1021.81,110.469 1022.3,110.62 1022.99,110.809C1023.68,110.997 1024.59,111.092 1025.72,111.092C1027.41,111.092 1028.71,110.776 1029.62,110.145C1030.53,109.514 1030.98,108.583 1030.98,107.352C1030.98,106.778 1030.91,106.286 1030.76,105.876C1030.62,105.467 1030.38,105.102 1030.06,104.782C1029.74,104.461 1029.34,104.176 1028.84,103.92C1028.35,103.667 1027.75,103.409 1027.05,103.145C1026.62,102.999 1026.26,102.854 1025.96,102.715C1025.67,102.577 1025.43,102.436 1025.25,102.297C1025.07,102.157 1024.95,102.006 1024.87,101.842C1024.8,101.678 1024.76,101.489 1024.76,101.276C1024.76,100.851 1024.95,100.534 1025.33,100.329C1025.7,100.124 1026.2,100.023 1026.8,100.023C1027.47,100.023 1028.06,100.083 1028.57,100.206C1029.08,100.329 1029.5,100.464 1029.83,100.612L1030.37,98.202C1030.02,98.071 1029.51,97.935 1028.82,97.796C1028.13,97.657 1027.41,97.587 1026.65,97.587C1025.16,97.587 1023.98,97.927 1023.11,98.608C1022.24,99.288 1021.81,100.22 1021.81,101.399C1021.81,102.006 1021.9,102.518 1022.09,102.936C1022.28,103.354 1022.54,103.711 1022.87,104.006C1023.19,104.301 1023.58,104.561 1024.04,104.782C1024.48,105.002 1024.98,105.211 1025.52,105.409C1026.41,105.737 1027.04,106.04 1027.43,106.319C1027.81,106.598 1028.01,106.95 1028.01,107.376C1028.01,107.836 1027.83,108.161 1027.46,108.348C1027.1,108.538 1026.53,108.631 1025.74,108.631C1024.96,108.631 1024.26,108.549 1023.64,108.385ZM1036.44,91.683L1033.46,92.175L1033.46,110.772L1036.44,110.772L1036.44,104.868C1036.88,105.196 1037.33,105.594 1037.79,106.061C1038.25,106.528 1038.7,107.024 1039.14,107.549C1039.59,108.075 1040,108.616 1040.39,109.172C1040.77,109.731 1041.11,110.264 1041.41,110.772L1044.85,110.772C1044.56,110.213 1044.19,109.608 1043.75,108.952C1043.3,108.295 1042.83,107.639 1042.32,106.983C1041.82,106.327 1041.29,105.708 1040.75,105.126C1040.21,104.543 1039.7,104.047 1039.21,103.637C1040.12,102.702 1041.04,101.743 1041.94,100.761C1042.85,99.776 1043.71,98.825 1044.53,97.907L1041.02,97.907C1040.75,98.218 1040.44,98.583 1040.07,99.001C1039.7,99.419 1039.31,99.855 1038.9,100.306C1038.49,100.755 1038.07,101.206 1037.64,101.657C1037.22,102.108 1036.82,102.53 1036.44,102.924L1036.44,91.683ZM1048.72,97.782C1048,97.915 1047.45,98.046 1047.08,98.177L1047.45,100.587C1047.8,100.456 1048.27,100.343 1048.85,100.243C1049.42,100.146 1050.05,100.097 1050.74,100.097C1051.25,100.097 1051.67,100.161 1052.01,100.292C1052.34,100.423 1052.62,100.608 1052.82,100.847C1053.03,101.083 1053.17,101.358 1053.25,101.668C1053.33,101.981 1053.38,102.309 1053.38,102.653L1053.38,103.145C1052.96,103.047 1052.58,102.977 1052.22,102.936C1051.86,102.895 1051.51,102.876 1051.18,102.876C1050.48,102.876 1049.8,102.946 1049.16,103.085C1048.51,103.223 1047.94,103.454 1047.45,103.778C1046.95,104.1 1046.56,104.514 1046.28,105.02C1045.99,105.526 1045.85,106.147 1045.85,106.885C1045.85,107.657 1045.97,108.303 1046.23,108.829C1046.48,109.354 1046.83,109.78 1047.29,110.108C1047.74,110.436 1048.28,110.672 1048.92,110.821C1049.56,110.969 1050.27,111.042 1051.04,111.042C1051.41,111.042 1051.78,111.034 1052.13,111.018C1052.48,111.001 1052.82,110.977 1053.15,110.944C1052.82,111.19 1052.55,111.452 1052.32,111.731C1052.04,112.026 1051.81,112.342 1051.63,112.678C1051.45,113.014 1051.36,113.37 1051.36,113.749C1051.36,114.372 1051.58,114.868 1052.03,115.237C1052.48,115.606 1053.22,115.79 1054.23,115.79C1054.6,115.79 1054.96,115.762 1055.33,115.704C1055.7,115.647 1056.01,115.569 1056.28,115.471L1056.03,113.477C1055.8,113.559 1055.59,113.614 1055.39,113.637C1055.2,113.663 1055.03,113.674 1054.9,113.674C1054.32,113.674 1054.04,113.454 1054.04,113.01C1054.04,112.797 1054.1,112.592 1054.23,112.395C1054.37,112.198 1054.55,111.985 1054.78,111.754C1055.04,111.477 1055.3,111.231 1055.58,111.018C1055.85,110.805 1056.07,110.624 1056.25,110.477L1056.25,102.678C1056.25,101.924 1056.17,101.231 1055.99,100.601C1055.82,99.97 1055.54,99.433 1055.13,98.989C1054.73,98.546 1054.19,98.202 1053.52,97.956C1052.85,97.71 1052.02,97.587 1051.04,97.587C1050.22,97.587 1049.45,97.651 1048.72,97.782ZM1049.49,108.274C1049.05,108.004 1048.82,107.516 1048.82,106.811C1048.82,106.45 1048.9,106.151 1049.07,105.913C1049.23,105.676 1049.45,105.491 1049.72,105.36C1049.99,105.229 1050.3,105.139 1050.63,105.088C1050.97,105.04 1051.3,105.016 1051.63,105.016C1052,105.016 1052.35,105.04 1052.66,105.088C1052.97,105.139 1053.21,105.188 1053.38,105.237L1053.38,108.534C1052.9,108.631 1052.2,108.68 1051.28,108.68C1050.53,108.68 1049.93,108.545 1049.49,108.274Z" style="fill:rgb(35,31,32);fill-rule:nonzero;"/>
        <path d="M821.322,67.962C821.716,67.913 822.371,67.89 823.291,67.89C825.389,67.89 826.939,68.405 827.939,69.439C828.94,70.472 829.44,71.956 829.44,73.892C829.44,75.794 828.927,77.274 827.902,78.331C826.877,79.39 825.323,79.919 823.242,79.919C822.732,79.919 822.332,79.915 822.035,79.905C821.74,79.898 821.502,79.886 821.322,79.868L821.322,67.962ZM831.998,69.993C831.539,68.901 830.887,67.999 830.043,67.286C829.198,66.573 828.185,66.048 827.005,65.712C825.824,65.376 824.52,65.208 823.093,65.208C822.404,65.208 821.617,65.231 820.732,65.282C819.846,65.331 819.009,65.446 818.222,65.626L818.222,82.183C819.009,82.362 819.838,82.481 820.707,82.538C821.576,82.597 822.355,82.624 823.044,82.624C824.487,82.624 825.803,82.448 826.992,82.097C828.181,81.743 829.198,81.202 830.043,80.472C830.887,79.743 831.539,78.831 831.998,77.741C832.457,76.651 832.687,75.368 832.687,73.892C832.687,72.382 832.457,71.083 831.998,69.993ZM846.841,73.214C846.537,72.388 846.115,71.679 845.574,71.087C845.033,70.497 844.381,70.042 843.619,69.722C842.856,69.401 842.023,69.241 841.123,69.241C840.219,69.241 839.391,69.401 838.637,69.722C837.882,70.042 837.231,70.497 836.681,71.087C836.132,71.679 835.705,72.388 835.402,73.214C835.098,74.042 834.947,74.966 834.947,75.983C834.947,76.999 835.098,77.927 835.402,78.763C835.705,79.599 836.129,80.312 836.669,80.903C837.211,81.493 837.859,81.952 838.613,82.28C839.367,82.608 840.203,82.773 841.123,82.773C842.041,82.773 842.88,82.608 843.643,82.28C844.406,81.952 845.058,81.493 845.599,80.903C846.14,80.312 846.558,79.599 846.853,78.763C847.149,77.927 847.297,76.999 847.297,75.983C847.297,74.966 847.144,74.042 846.841,73.214ZM843.422,79.058C842.873,79.812 842.106,80.189 841.123,80.189C840.138,80.189 839.371,79.812 838.822,79.058C838.272,78.304 837.998,77.278 837.998,75.983C837.998,74.702 838.272,73.69 838.822,72.944C839.371,72.198 840.138,71.825 841.123,71.825C842.106,71.825 842.873,72.198 843.422,72.944C843.971,73.69 844.246,74.702 844.246,75.983C844.246,77.278 843.971,78.304 843.422,79.058ZM862.741,69.562L859.764,69.562L859.764,82.429L862.741,82.429L862.741,69.562ZM862.544,64.444C862.183,64.116 861.757,63.952 861.265,63.952C860.755,63.952 860.321,64.116 859.961,64.444C859.6,64.773 859.419,65.224 859.419,65.798C859.419,66.356 859.6,66.798 859.961,67.126C860.321,67.454 860.755,67.618 861.265,67.618C861.757,67.618 862.183,67.454 862.544,67.126C862.904,66.798 863.086,66.356 863.086,65.798C863.086,65.224 862.904,64.773 862.544,64.444ZM851.13,64.739C850.259,65.675 849.826,66.98 849.826,68.651L849.826,82.429L852.802,82.429L852.802,72.046L857.526,72.046L857.526,69.562L852.802,69.562L852.802,68.7C852.802,67.864 852.987,67.185 853.356,66.659C853.725,66.136 854.401,65.872 855.384,65.872C855.761,65.872 856.111,65.905 856.431,65.97C856.752,66.036 857.025,66.11 857.255,66.192L857.722,63.78C857.476,63.683 857.136,63.583 856.701,63.485C856.267,63.388 855.738,63.337 855.115,63.337C853.328,63.337 852,63.806 851.13,64.739ZM866.234,82.429L869.211,82.429L869.211,72.046C869.407,72.015 869.711,71.974 870.121,71.923C870.53,71.874 870.923,71.851 871.3,71.851C871.809,71.851 872.24,71.919 872.593,72.06C872.945,72.198 873.224,72.419 873.429,72.724C873.634,73.026 873.782,73.419 873.873,73.903C873.963,74.388 874.007,74.974 874.007,75.663L874.007,82.429L876.984,82.429L876.984,75.194C876.984,74.325 876.898,73.526 876.726,72.796C876.552,72.067 876.257,71.444 875.839,70.927C875.422,70.411 874.86,70.009 874.155,69.722C873.45,69.435 872.572,69.29 871.523,69.29C870.407,69.29 869.391,69.364 868.472,69.513C867.554,69.659 866.808,69.815 866.234,69.98L866.234,82.429ZM882.97,79.931C882.529,79.659 882.307,79.173 882.307,78.466C882.307,78.106 882.389,77.808 882.552,77.569C882.716,77.331 882.934,77.148 883.205,77.017C883.476,76.886 883.779,76.794 884.115,76.745C884.451,76.696 884.783,76.671 885.112,76.671C885.489,76.671 885.834,76.696 886.145,76.745C886.457,76.794 886.694,76.845 886.858,76.894L886.858,80.189C886.382,80.288 885.685,80.337 884.767,80.337C884.013,80.337 883.414,80.202 882.97,79.931ZM882.209,69.439C881.487,69.569 880.938,69.702 880.561,69.833L880.93,72.243C881.291,72.112 881.757,71.997 882.332,71.899C882.906,71.802 883.537,71.751 884.226,71.751C884.734,71.751 885.157,71.817 885.494,71.948C885.83,72.079 886.099,72.265 886.305,72.501C886.509,72.739 886.653,73.015 886.735,73.325C886.817,73.638 886.858,73.964 886.858,74.31L886.858,74.802C886.448,74.702 886.063,74.634 885.703,74.593C885.341,74.552 884.998,74.53 884.669,74.53C883.963,74.53 883.287,74.601 882.639,74.739C881.991,74.88 881.422,75.108 880.93,75.429C880.438,75.749 880.048,76.163 879.761,76.671C879.474,77.181 879.332,77.804 879.332,78.54C879.332,79.312 879.457,79.96 879.713,80.483C879.966,81.009 880.318,81.437 880.77,81.765C881.22,82.091 881.766,82.329 882.406,82.478C883.044,82.624 883.75,82.698 884.521,82.698C885.685,82.698 886.731,82.628 887.658,82.489C888.584,82.351 889.277,82.231 889.736,82.132L889.736,74.333C889.736,73.579 889.65,72.888 889.478,72.255C889.306,71.624 889.019,71.087 888.617,70.644C888.214,70.202 887.677,69.856 887.005,69.61C886.334,69.364 885.505,69.241 884.521,69.241C883.701,69.241 882.93,69.308 882.209,69.439ZM893.011,82.429L895.987,82.429L895.987,72.046C896.184,72.015 896.487,71.974 896.897,71.923C897.307,71.874 897.701,71.851 898.079,71.851C898.587,71.851 899.017,71.919 899.37,72.06C899.722,72.198 900.001,72.419 900.206,72.724C900.411,73.026 900.558,73.419 900.649,73.903C900.739,74.388 900.784,74.974 900.784,75.663L900.784,82.429L903.76,82.429L903.76,75.194C903.76,74.325 903.674,73.526 903.503,72.796C903.331,72.067 903.036,71.444 902.617,70.927C902.199,70.411 901.637,70.009 900.932,69.722C900.226,69.435 899.349,69.29 898.299,69.29C897.184,69.29 896.168,69.364 895.25,69.513C894.33,69.659 893.584,69.815 893.011,69.98L893.011,82.429ZM908.223,80.042C907.608,79.878 907.079,79.706 906.635,79.524L906.12,82.011C906.398,82.124 906.881,82.276 907.571,82.464C908.26,82.653 909.171,82.747 910.301,82.747C911.991,82.747 913.292,82.433 914.201,81.802C915.111,81.169 915.566,80.237 915.566,79.007C915.566,78.435 915.492,77.942 915.344,77.532C915.197,77.122 914.963,76.757 914.644,76.439C914.324,76.118 913.919,75.831 913.426,75.577C912.934,75.323 912.335,75.064 911.63,74.802C911.204,74.653 910.842,74.511 910.547,74.37C910.253,74.231 910.015,74.093 909.835,73.952C909.654,73.814 909.527,73.661 909.454,73.497C909.38,73.333 909.342,73.146 909.342,72.933C909.342,72.505 909.531,72.19 909.908,71.985C910.286,71.78 910.777,71.679 911.383,71.679C912.056,71.679 912.647,71.739 913.155,71.862C913.663,71.985 914.083,72.12 914.411,72.269L914.951,69.856C914.607,69.726 914.09,69.591 913.401,69.45C912.712,69.312 911.991,69.241 911.236,69.241C909.745,69.241 908.563,69.583 907.694,70.263C906.825,70.944 906.39,71.874 906.39,73.056C906.39,73.661 906.484,74.175 906.672,74.593C906.862,75.011 907.12,75.368 907.448,75.663C907.776,75.958 908.165,76.216 908.617,76.439C909.067,76.659 909.564,76.868 910.105,77.065C910.99,77.394 911.626,77.696 912.01,77.976C912.397,78.253 912.588,78.606 912.588,79.032C912.588,79.491 912.409,79.815 912.047,80.005C911.687,80.192 911.113,80.288 910.326,80.288C909.54,80.288 908.838,80.206 908.223,80.042ZM929.276,73.214C928.973,72.388 928.551,71.679 928.01,71.087C927.469,70.497 926.817,70.042 926.055,69.722C925.291,69.401 924.459,69.241 923.557,69.241C922.654,69.241 921.825,69.401 921.071,69.722C920.317,70.042 919.665,70.497 919.115,71.087C918.566,71.679 918.14,72.388 917.837,73.214C917.533,74.042 917.381,74.966 917.381,75.983C917.381,76.999 917.533,77.927 917.837,78.763C918.14,79.599 918.562,80.312 919.103,80.903C919.644,81.493 920.292,81.952 921.047,82.28C921.801,82.608 922.639,82.773 923.557,82.773C924.475,82.773 925.317,82.608 926.078,82.28C926.842,81.952 927.492,81.493 928.033,80.903C928.574,80.312 928.992,79.599 929.289,78.763C929.584,77.927 929.731,76.999 929.731,75.983C929.731,74.966 929.58,74.042 929.276,73.214ZM925.858,79.058C925.307,79.812 924.541,80.189 923.557,80.189C922.572,80.189 921.805,79.812 921.256,79.058C920.706,78.304 920.432,77.278 920.432,75.983C920.432,74.702 920.706,73.69 921.256,72.944C921.805,72.198 922.572,71.825 923.557,71.825C924.541,71.825 925.307,72.198 925.858,72.944C926.406,73.69 926.682,74.702 926.682,75.983C926.682,77.278 926.406,78.304 925.858,79.058ZM941.182,78.554C941.631,79.923 942.068,81.214 942.496,82.429L944.914,82.429C945.26,81.673 945.613,80.814 945.975,79.845C946.334,78.876 946.697,77.845 947.059,76.745C947.42,75.648 947.781,74.489 948.143,73.276C948.504,72.064 948.858,70.825 949.203,69.562L946.127,69.562C945.979,70.251 945.805,70.993 945.608,71.788C945.41,72.583 945.199,73.396 944.977,74.224C944.756,75.052 944.527,75.86 944.297,76.648C944.067,77.435 943.844,78.155 943.631,78.812C943.385,78.058 943.143,77.278 942.906,76.476C942.67,75.671 942.447,74.868 942.242,74.064C942.039,73.261 941.848,72.478 941.668,71.714C941.486,70.952 941.322,70.235 941.176,69.562L938.889,69.562C938.74,70.235 938.572,70.952 938.383,71.714C938.193,72.478 937.992,73.261 937.777,74.064C937.565,74.868 937.34,75.671 937.1,76.476C936.861,77.278 936.621,78.058 936.373,78.812C936.143,78.155 935.912,77.435 935.682,76.648C935.449,75.86 935.229,75.052 935.014,74.224C934.799,73.396 934.594,72.583 934.395,71.788C934.197,70.993 934.026,70.251 933.877,69.562L930.727,69.562C931.07,70.825 931.424,72.064 931.787,73.276C932.147,74.489 932.51,75.648 932.871,76.745C933.231,77.845 933.594,78.876 933.955,79.845C934.317,80.814 934.662,81.673 934.988,82.429L937.434,82.429C937.859,81.214 938.289,79.923 938.723,78.554C939.158,77.185 939.563,75.778 939.94,74.333C940.317,75.778 940.731,77.185 941.182,78.554ZM953.783,79.931C953.34,79.659 953.117,79.173 953.117,78.466C953.117,78.106 953.199,77.808 953.363,77.569C953.527,77.331 953.746,77.148 954.016,77.017C954.287,76.886 954.59,76.794 954.926,76.745C955.262,76.696 955.596,76.671 955.924,76.671C956.301,76.671 956.645,76.696 956.955,76.745C957.268,76.794 957.506,76.845 957.668,76.894L957.668,80.189C957.193,80.288 956.496,80.337 955.578,80.337C954.824,80.337 954.225,80.202 953.783,79.931ZM953.02,69.439C952.299,69.569 951.748,69.702 951.371,69.833L951.74,72.243C952.102,72.112 952.568,71.997 953.143,71.899C953.717,71.802 954.348,71.751 955.037,71.751C955.545,71.751 955.969,71.817 956.305,71.948C956.641,72.079 956.91,72.265 957.115,72.501C957.32,72.739 957.465,73.015 957.547,73.325C957.627,73.638 957.668,73.964 957.668,74.31L957.668,74.802C957.26,74.702 956.873,74.634 956.514,74.593C956.152,74.552 955.809,74.53 955.481,74.53C954.776,74.53 954.098,74.601 953.449,74.739C952.803,74.88 952.233,75.108 951.74,75.429C951.248,75.749 950.859,76.163 950.572,76.671C950.285,77.181 950.143,77.804 950.143,78.54C950.143,79.312 950.27,79.96 950.523,80.483C950.777,81.009 951.131,81.437 951.58,81.765C952.031,82.091 952.576,82.329 953.217,82.478C953.856,82.624 954.561,82.698 955.332,82.698C956.496,82.698 957.541,82.628 958.469,82.489C959.395,82.351 960.088,82.231 960.549,82.132L960.549,74.333C960.549,73.579 960.461,72.888 960.289,72.255C960.117,71.624 959.83,71.087 959.428,70.644C959.026,70.202 958.488,69.856 957.817,69.61C957.145,69.364 956.317,69.241 955.332,69.241C954.512,69.241 953.74,69.308 953.02,69.439ZM963.822,82.429L966.799,82.429L966.799,72.046C966.994,72.015 967.299,71.974 967.709,71.923C968.117,71.874 968.512,71.851 968.889,71.851C969.397,71.851 969.828,71.919 970.182,72.06C970.533,72.198 970.813,72.419 971.018,72.724C971.223,73.026 971.369,73.419 971.459,73.903C971.551,74.388 971.596,74.974 971.596,75.663L971.596,82.429L974.572,82.429L974.572,75.194C974.572,74.325 974.486,73.526 974.315,72.796C974.141,72.067 973.846,71.444 973.428,70.927C973.01,70.411 972.447,70.009 971.742,69.722C971.037,69.435 970.16,69.29 969.111,69.29C967.994,69.29 966.979,69.364 966.061,69.513C965.143,69.659 964.397,69.815 963.822,69.98L963.822,82.429ZM977.549,78.726C977.811,79.536 978.213,80.243 978.754,80.841C979.295,81.44 979.984,81.907 980.82,82.243C981.656,82.579 982.641,82.747 983.772,82.747C984.215,82.747 984.648,82.724 985.076,82.673C985.502,82.624 985.901,82.564 986.27,82.489C986.639,82.415 986.967,82.333 987.252,82.243C987.539,82.153 987.766,82.067 987.93,81.985L987.535,79.55C987.192,79.696 986.721,79.837 986.121,79.968C985.523,80.099 984.863,80.165 984.141,80.165C982.91,80.165 981.973,79.882 981.324,79.315C980.676,78.749 980.313,77.95 980.231,76.917L988.717,76.917C988.733,76.753 988.744,76.569 988.754,76.364C988.762,76.159 988.766,75.976 988.766,75.81C988.766,73.628 988.27,71.989 987.277,70.89C986.285,69.792 984.904,69.241 983.133,69.241C982.377,69.241 981.641,69.386 980.918,69.673C980.197,69.96 979.557,70.386 979,70.952C978.442,71.519 977.994,72.228 977.658,73.079C977.322,73.933 977.154,74.925 977.154,76.056C977.154,77.024 977.285,77.913 977.549,78.726ZM980.254,74.728C980.305,74.351 980.393,73.981 980.526,73.62C980.656,73.261 980.842,72.94 981.078,72.661C981.317,72.382 981.608,72.157 981.951,71.985C982.297,71.814 982.697,71.728 983.156,71.728C983.6,71.728 983.981,71.806 984.301,71.96C984.621,72.116 984.891,72.329 985.113,72.601C985.334,72.87 985.502,73.19 985.617,73.56C985.733,73.929 985.789,74.317 985.789,74.728L980.254,74.728ZM1005.6,79.032C1005.1,79.771 1004.3,80.14 1003.22,80.14C1002.73,80.14 1002.27,80.062 1001.83,79.905C1001.4,79.751 1001.05,79.583 1000.79,79.401L1000.79,72.046C1001.08,71.964 1001.38,71.911 1001.68,71.888C1001.99,71.862 1002.28,71.851 1002.56,71.851C1003.89,71.851 1004.85,72.22 1005.45,72.956C1006.05,73.694 1006.35,74.728 1006.35,76.056C1006.35,77.304 1006.1,78.294 1005.6,79.032ZM1008.94,73.214C1008.64,72.388 1008.2,71.683 1007.64,71.101C1007.07,70.519 1006.39,70.071 1005.58,69.759C1004.78,69.446 1003.87,69.29 1002.85,69.29C1001.87,69.29 1000.93,69.364 1000.05,69.513C999.164,69.659 998.416,69.815 997.811,69.98L997.811,86.981L1000.79,86.981L1000.79,81.985C1001.12,82.165 1001.53,82.329 1002.04,82.478C1002.55,82.624 1003.11,82.698 1003.71,82.698C1004.62,82.698 1005.42,82.534 1006.14,82.206C1006.85,81.878 1007.45,81.419 1007.92,80.829C1008.4,80.237 1008.76,79.532 1009.02,78.712C1009.27,77.894 1009.4,76.991 1009.4,76.007C1009.4,74.974 1009.24,74.042 1008.94,73.214ZM1019.95,69.733C1019.8,69.685 1019.61,69.632 1019.36,69.573C1019.12,69.517 1018.86,69.468 1018.6,69.427C1018.34,69.386 1018.07,69.353 1017.81,69.327C1017.55,69.304 1017.32,69.29 1017.12,69.29C1016.07,69.29 1015.12,69.386 1014.26,69.573C1013.4,69.763 1012.68,69.964 1012.11,70.177L1012.11,82.429L1015.08,82.429L1015.08,72.12C1015.23,72.071 1015.49,72.015 1015.86,71.948C1016.22,71.882 1016.57,71.851 1016.9,71.851C1017.47,71.851 1017.98,71.896 1018.41,71.985C1018.85,72.075 1019.19,72.161 1019.44,72.243L1019.95,69.733ZM1031.28,69.562L1021.51,69.562L1021.51,72.046L1027.44,72.046C1027,72.571 1026.49,73.187 1025.93,73.892C1025.36,74.597 1024.79,75.339 1024.21,76.118C1023.64,76.898 1023.08,77.671 1022.54,78.442C1022,79.214 1021.55,79.927 1021.19,80.583L1021.19,82.429L1031.42,82.429L1031.42,79.942L1024.78,79.942C1025.27,79.189 1025.83,78.398 1026.44,77.569C1027.06,76.741 1027.67,75.946 1028.28,75.183C1028.88,74.421 1029.45,73.728 1029.98,73.105C1030.52,72.481 1030.95,71.997 1031.28,71.653L1031.28,69.562ZM1033.38,78.726C1033.64,79.536 1034.05,80.243 1034.59,80.841C1035.13,81.44 1035.82,81.907 1036.65,82.243C1037.49,82.579 1038.47,82.747 1039.61,82.747C1040.05,82.747 1040.48,82.724 1040.91,82.673C1041.34,82.624 1041.73,82.564 1042.1,82.489C1042.47,82.415 1042.8,82.333 1043.09,82.243C1043.37,82.153 1043.6,82.067 1043.76,81.985L1043.37,79.55C1043.03,79.696 1042.55,79.837 1041.96,79.968C1041.36,80.099 1040.7,80.165 1039.97,80.165C1038.74,80.165 1037.8,79.882 1037.16,79.315C1036.51,78.749 1036.14,77.95 1036.06,76.917L1044.55,76.917C1044.57,76.753 1044.58,76.569 1044.59,76.364C1044.59,76.159 1044.6,75.976 1044.6,75.81C1044.6,73.628 1044.1,71.989 1043.11,70.89C1042.12,69.792 1040.74,69.241 1038.96,69.241C1038.21,69.241 1037.47,69.386 1036.75,69.673C1036.03,69.96 1035.39,70.386 1034.83,70.952C1034.28,71.519 1033.83,72.228 1033.49,73.079C1033.16,73.933 1032.99,74.925 1032.99,76.056C1032.99,77.024 1033.12,77.913 1033.38,78.726ZM1036.09,74.728C1036.14,74.351 1036.23,73.981 1036.36,73.62C1036.49,73.261 1036.67,72.94 1036.91,72.661C1037.15,72.382 1037.44,72.157 1037.79,71.985C1038.13,71.814 1038.53,71.728 1038.99,71.728C1039.43,71.728 1039.81,71.806 1040.13,71.96C1040.45,72.116 1040.72,72.329 1040.95,72.601C1041.17,72.87 1041.34,73.19 1041.45,73.56C1041.56,73.929 1041.62,74.317 1041.62,74.728L1036.09,74.728ZM1056.19,69.562L1046.42,69.562L1046.42,72.046L1052.35,72.046C1051.91,72.571 1051.4,73.187 1050.83,73.892C1050.27,74.597 1049.7,75.339 1049.13,76.118C1048.55,76.898 1047.99,77.671 1047.45,78.442C1046.91,79.214 1046.46,79.927 1046.1,80.583L1046.1,82.429L1056.33,82.428L1056.33,79.942L1049.69,79.942C1050.18,79.189 1050.74,78.398 1051.35,77.569C1051.97,76.741 1052.58,75.946 1053.18,75.183C1053.79,74.421 1054.36,73.728 1054.89,73.105C1055.43,72.481 1055.86,71.997 1056.19,71.653L1056.19,69.562Z" style="fill:rgb(35,31,32);fill-rule:nonzero;"/>
        <rect x="1077.59" y="46.995" width="127.56" height="85.039" style="fill:rgb(7,78,162);fill-rule:nonzero;"/>
        <path d="M1141.37,57.128L1142.41,60.331L1145.78,60.331L1143.06,62.31L1144.1,65.513L1141.37,63.533L1138.65,65.513L1139.69,62.31L1136.96,60.331L1140.33,60.331L1141.37,57.128Z" style="fill:rgb(255,242,0);fill-rule:nonzero;"/>
        <path d="M1141.37,113.231L1142.41,116.435L1145.78,116.435L1143.06,118.413L1144.1,121.616L1141.37,119.636L1138.65,121.616L1139.69,118.413L1136.96,116.435L1140.33,116.435L1141.37,113.231Z" style="fill:rgb(255,242,0);fill-rule:nonzero;"/>
        <path d="M1113.54,85.049L1114.58,88.253L1117.94,88.253L1115.22,90.231L1116.26,93.435L1113.54,91.454L1110.81,93.435L1111.85,90.231L1109.13,88.253L1112.5,88.253L1113.54,85.049Z" style="fill:rgb(255,242,0);fill-rule:nonzero;"/>
        <path d="M1169.21,85.049L1170.25,88.253L1173.62,88.253L1170.89,90.231L1171.93,93.435L1169.21,91.454L1166.48,93.435L1167.53,90.231L1164.8,88.253L1168.17,88.253L1169.21,85.049Z" style="fill:rgb(255,242,0);fill-rule:nonzero;"/>
        <path d="M1155.23,60.98L1156.28,64.183L1159.64,64.183L1156.92,66.162L1157.96,69.365L1155.23,67.385L1152.51,69.365L1153.55,66.162L1150.83,64.183L1154.19,64.183L1155.23,60.98Z" style="fill:rgb(255,242,0);fill-rule:nonzero;"/>
        <path d="M1127.51,60.98L1128.55,64.183L1131.92,64.183L1129.2,66.162L1130.24,69.365L1127.51,67.385L1124.79,69.365L1125.83,66.162L1123.1,64.183L1126.47,64.183L1127.51,60.98Z" style="fill:rgb(255,242,0);fill-rule:nonzero;"/>
        <path d="M1155.23,109.14L1156.28,112.343L1159.64,112.343L1156.92,114.321L1157.96,117.524L1155.23,115.544L1152.51,117.524L1153.55,114.321L1150.83,112.343L1154.19,112.343L1155.23,109.14Z" style="fill:rgb(255,242,0);fill-rule:nonzero;"/>
        <path d="M1127.51,109.14L1128.55,112.343L1131.92,112.343L1129.2,114.321L1130.24,117.524L1127.51,115.544L1124.79,117.524L1125.83,114.321L1123.1,112.343L1126.47,112.343L1127.51,109.14Z" style="fill:rgb(255,242,0);fill-rule:nonzero;"/>
        <path d="M1165.44,71.043L1166.48,74.246L1169.85,74.246L1167.12,76.224L1168.16,79.427L1165.44,77.447L1162.72,79.427L1163.76,76.224L1161.03,74.246L1164.4,74.246L1165.44,71.043Z" style="fill:rgb(255,242,0);fill-rule:nonzero;"/>
        <path d="M1117.31,71.043L1118.35,74.246L1121.71,74.246L1118.99,76.224L1120.03,79.427L1117.31,77.447L1114.58,79.427L1115.62,76.224L1112.9,74.246L1116.27,74.246L1117.31,71.043Z" style="fill:rgb(255,242,0);fill-rule:nonzero;"/>
        <path d="M1165.44,98.909L1166.48,102.113L1169.85,102.113L1167.12,104.091L1168.16,107.294L1165.44,105.314L1162.72,107.294L1163.76,104.091L1161.03,102.113L1164.4,102.113L1165.44,98.909Z" style="fill:rgb(255,242,0);fill-rule:nonzero;"/>
        <path d="M1117.31,98.909L1118.35,102.113L1121.71,102.113L1118.99,104.091L1120.03,107.294L1117.31,105.314L1114.58,107.294L1115.62,104.091L1112.9,102.113L1116.27,102.113L1117.31,98.909Z" style="fill:rgb(255,242,0);fill-rule:nonzero;"/>
    </g>
</svg>
