<?xml version="1.0" encoding="UTF-8" standalone="no"?>
<!DOCTYPE svg PUBLIC "-//W3C//DTD SVG 1.1//EN" "http://www.w3.org/Graphics/SVG/1.1/DTD/svg11.dtd">
<svg width="100%" height="100%" viewBox="0 0 438 168" version="1.1" xmlns="http://www.w3.org/2000/svg" xmlns:xlink="http://www.w3.org/1999/xlink" xml:space="preserve" xmlns:serif="http://www.serif.com/" style="fill-rule:evenodd;clip-rule:evenodd;stroke-linejoin:round;stroke-miterlimit:2;">
    <g transform="matrix(1,0,0,1,-78.722,-74.0269)">
        <g>
            <path d="M187.427,141.074C187.427,141.074 186.784,141.338 185.541,141.338C184.146,141.338 183.578,141.074 183.578,141.074L183.578,114.174L193.427,114.174C198.408,114.174 201.539,117.53 201.539,122.473C201.539,127.379 198.408,130.733 193.427,130.733L187.427,130.733L187.427,141.074ZM192.935,127.529C195.916,127.529 197.538,125.642 197.538,122.473C197.538,119.268 195.916,117.379 192.935,117.379L187.427,117.379L187.427,127.529L192.935,127.529Z" style="fill:rgb(73,80,86);fill-rule:nonzero;"/>
            <path d="M212.178,121.113C217.649,121.113 219.385,123.568 219.385,128.433L219.385,141.075C219.385,141.075 218.97,141.337 217.914,141.337C216.971,141.337 216.404,141.075 216.404,141.075L215.838,138.659C214.857,140.658 212.782,141.715 209.914,141.715C206.368,141.715 204.068,139.64 204.068,135.411C204.068,131.301 206.595,129.492 211.309,129.492C213.009,129.492 214.63,129.604 215.613,129.717L215.613,128.32C215.613,125.755 214.63,124.282 211.725,124.282C209.083,124.282 206.669,125.228 206.669,125.228C206.632,125.188 206.179,124.887 205.803,124.095C205.463,123.301 205.575,122.545 205.575,122.509C205.575,122.509 208.405,121.113 212.178,121.113ZM211.801,132.056C209.273,132.056 207.952,133.035 207.952,135.411C207.952,137.867 209.199,138.811 211.235,138.811C214.215,138.811 215.613,136.282 215.613,133.603L215.613,132.281C214.743,132.208 213.234,132.056 211.801,132.056Z" style="fill:rgb(73,80,86);fill-rule:nonzero;"/>
            <path d="M240.062,141.074C240.062,141.074 239.419,141.338 238.175,141.338C236.892,141.338 236.289,141.074 236.289,141.074L236.289,127.491C236.289,125.38 235.195,124.171 232.782,124.171C231.119,124.171 229.497,125.074 228.517,126.588L228.517,141.074C228.517,141.074 227.838,141.338 226.631,141.338C225.31,141.338 224.744,141.074 224.744,141.074L224.744,121.756C224.744,121.756 225.31,121.492 226.631,121.492C227.838,121.492 228.517,121.756 228.517,121.756L228.517,123.491C229.874,121.946 231.836,121.114 234.214,121.114C237.987,121.114 240.062,123.415 240.062,126.811L240.062,141.074ZM231.195,118.548C230.291,118.397 229.497,118.02 229.044,117.379L232.628,112.058C233.836,111.907 235.344,112.586 235.913,113.457L231.195,118.548Z" style="fill:rgb(73,80,86);fill-rule:nonzero;"/>
            <path d="M251.685,121.113C255.378,121.113 257.001,122.131 257.001,122.131C257.001,123.114 256.663,124.209 256.019,124.812C256.019,124.812 254.209,124.209 252.059,124.209C249.495,124.209 248.211,125.151 248.211,126.924C248.211,128.772 250.587,129.229 252.963,130.021C255.419,130.812 257.984,131.979 257.984,135.676C257.984,139.488 255.606,141.715 250.814,141.715C246.853,141.715 244.515,140.357 244.515,140.357C244.515,139.262 244.854,138.206 245.533,137.563C245.533,137.563 247.986,138.507 250.627,138.507C252.929,138.507 254.249,137.64 254.249,135.789C254.249,133.716 252.172,133.263 249.948,132.621C247.38,131.866 244.589,130.772 244.589,127.036C244.589,123.491 246.892,121.113 251.685,121.113Z" style="fill:rgb(73,80,86);fill-rule:nonzero;"/>
            <path d="M267.343,134.206C267.343,137.639 268.436,138.66 271.114,138.66C271.87,138.66 272.699,138.509 272.699,138.509C272.699,138.509 272.963,139.149 272.963,140.017C272.963,140.884 272.774,141.374 272.774,141.374C272.095,141.565 271.077,141.714 270.057,141.714C265.417,141.714 263.567,139.186 263.567,134.394L263.567,124.324L260.664,124.324C260.664,124.324 260.437,123.792 260.437,122.923C260.437,121.98 260.664,121.491 260.664,121.491L263.567,121.491L263.567,118.057C264.551,117.455 265.945,117.191 267.343,117.304L267.343,121.491L272.246,121.491C272.246,121.491 272.473,121.98 272.473,122.887C272.473,123.755 272.246,124.324 272.246,124.324L267.343,124.324L267.343,134.206Z" style="fill:rgb(73,80,86);fill-rule:nonzero;"/>
            <path d="M290.017,130.849C289.301,128.283 289.074,126.587 289,125.415L288.848,125.415C288.771,126.587 288.544,128.322 287.792,130.849L284.813,141.074C284.208,141.261 283.491,141.337 282.66,141.337C281.867,141.337 281.115,141.261 280.474,141.074L274.775,121.756C274.775,121.756 275.454,121.493 276.662,121.493C277.946,121.493 278.283,121.756 278.283,121.756L281.867,133.792C282.358,135.413 282.545,136.696 282.66,137.488L282.772,137.488C282.922,136.659 283.115,135.452 283.603,133.792L287.075,121.756C287.075,121.756 287.981,121.493 289.113,121.493C290.355,121.493 290.959,121.756 290.959,121.756L294.32,133.717C294.81,135.413 294.997,136.696 295.075,137.488L295.186,137.488C295.338,136.696 295.603,135.49 296.13,133.753L299.678,121.756C299.678,121.756 300.282,121.493 301.338,121.493C302.506,121.493 302.958,121.756 302.958,121.756L297.262,141.074C296.583,141.261 295.905,141.337 295.112,141.337C294.32,141.337 293.641,141.261 292.926,141.074L290.017,130.849Z" style="fill:rgb(73,80,86);fill-rule:nonzero;"/>
            <path d="M313.827,121.113C319.035,121.113 322.204,123.944 322.204,131.413C322.204,138.885 318.996,141.715 313.827,141.715C308.661,141.715 305.451,138.885 305.451,131.413C305.451,123.944 308.661,121.113 313.827,121.113ZM313.827,124.02C311.074,124.02 309.3,125.604 309.3,131.413C309.3,137.224 311.074,138.811 313.827,138.811C316.583,138.811 318.315,137.224 318.315,131.413C318.315,125.604 316.583,124.02 313.827,124.02Z" style="fill:rgb(73,80,86);fill-rule:nonzero;"/>
            <path d="M339.937,130.849C339.22,128.283 338.996,126.587 338.92,125.415L338.77,125.415C338.693,126.587 338.464,128.322 337.712,130.849L334.73,141.074C334.129,141.261 333.411,141.337 332.583,141.337C331.789,141.337 331.034,141.261 330.393,141.074L324.695,121.756C324.695,121.756 325.375,121.493 326.582,121.493C327.865,121.493 328.206,121.756 328.206,121.756L331.789,133.792C332.281,135.413 332.467,136.696 332.583,137.488L332.694,137.488C332.843,136.659 333.032,135.452 333.525,133.792L336.996,121.756C336.996,121.756 337.902,121.493 339.031,121.493C340.279,121.493 340.88,121.756 340.88,121.756L344.241,133.717C344.732,135.413 344.918,136.696 344.996,137.488L345.11,137.488C345.259,136.696 345.524,135.49 346.052,133.753L349.595,121.756C349.595,121.756 350.202,121.493 351.257,121.493C352.423,121.493 352.879,121.756 352.879,121.756L347.182,141.074C346.504,141.261 345.825,141.337 345.035,141.337C344.241,141.337 343.561,141.261 342.841,141.074L339.937,130.849Z" style="fill:rgb(73,80,86);fill-rule:nonzero;"/>
            <path d="M365.56,144.243C364.202,148.394 362.88,150.769 358.803,150.769C357.558,150.769 356.729,150.393 356.729,150.393C356.729,150.354 356.463,149.75 356.463,148.997C356.463,148.164 356.729,147.527 356.769,147.486C356.769,147.486 357.598,147.637 358.463,147.637C360.163,147.637 361.033,147.187 362.162,143.638L362.956,141.338C362.576,141.302 362.162,141.261 361.747,141.074L354.581,121.756C354.581,121.756 355.294,121.492 356.541,121.492C357.825,121.492 358.503,121.756 358.503,121.756L362.803,133.226C363.748,135.827 364.123,137.639 364.123,137.639L364.275,137.639C364.275,137.639 364.654,135.868 365.483,133.262L369.217,121.756C369.217,121.756 369.823,121.492 371.067,121.492C372.164,121.492 372.837,121.756 372.837,121.756L365.56,144.243Z" style="fill:rgb(73,80,86);fill-rule:nonzero;"/>
            <path d="M388.574,141.074C388.574,141.074 387.929,141.338 386.614,141.338C385.366,141.338 384.725,141.074 384.725,141.074L384.725,114.174L399.741,114.174C399.933,114.588 400.045,115.117 400.045,115.718C400.045,116.322 399.933,116.851 399.741,117.304L388.574,117.304L388.574,126.509L398.46,126.509C398.647,126.887 398.762,127.416 398.762,128.02C398.762,128.621 398.647,129.187 398.46,129.641L388.574,129.641L388.574,141.074Z" style="fill:rgb(73,80,86);fill-rule:nonzero;"/>
            <path d="M403.403,121.756C403.403,121.756 404.045,121.491 405.292,121.491C406.572,121.491 407.174,121.756 407.174,121.756L407.174,135.338C407.174,137.449 408.271,138.66 410.684,138.66C412.346,138.66 413.928,137.789 414.947,136.244L414.947,121.756C414.947,121.756 415.628,121.491 416.833,121.491C418.158,121.491 418.718,121.756 418.718,121.756L418.718,141.074C418.718,141.074 418.158,141.337 416.833,141.337C415.628,141.337 414.947,141.074 414.947,141.074L414.947,139.338C413.589,140.884 411.591,141.714 409.251,141.714C405.478,141.714 403.403,139.413 403.403,136.017L403.403,121.756Z" style="fill:rgb(73,80,86);fill-rule:nonzero;"/>
            <path d="M439.546,141.074C439.546,141.074 438.904,141.338 437.66,141.338C436.382,141.338 435.776,141.074 435.776,141.074L435.776,127.491C435.776,125.38 434.681,124.171 432.268,124.171C430.605,124.171 428.984,125.074 428.001,126.588L428.001,141.074C428.001,141.074 427.321,141.338 426.116,141.338C424.793,141.338 424.231,141.074 424.231,141.074L424.231,121.756C424.231,121.756 424.793,121.492 426.116,121.492C427.321,121.492 428.001,121.756 428.001,121.756L428.001,123.491C429.363,121.946 431.324,121.114 433.704,121.114C437.476,121.114 439.546,123.415 439.546,126.811L439.546,141.074Z" style="fill:rgb(73,80,86);fill-rule:nonzero;"/>
            <path d="M458.565,113.041C459.809,113.041 460.415,113.305 460.415,113.305L460.415,141.075C460.415,141.075 459.773,141.337 458.831,141.337C457.884,141.337 457.13,141.075 457.13,141.075L456.867,139.036C455.773,140.696 454.038,141.715 451.21,141.715C446.908,141.715 444.113,139.11 444.113,131.414C444.113,123.717 446.908,121.113 451.21,121.113C453.847,121.113 455.546,122.02 456.639,123.568L456.639,113.305C456.639,113.305 457.282,113.041 458.565,113.041ZM452.526,124.209C449.509,124.209 448.001,125.794 448.001,131.414C448.001,137.036 449.509,138.621 452.526,138.621C455.167,138.621 456.639,136.395 456.639,133.791L456.639,128.922C456.603,126.398 455.13,124.209 452.526,124.209Z" style="fill:rgb(73,80,86);fill-rule:nonzero;"/>
            <path d="M465.771,121.756C465.771,121.756 466.413,121.491 467.662,121.491C468.94,121.491 469.542,121.756 469.542,121.756L469.542,135.338C469.542,137.449 470.64,138.66 473.053,138.66C474.71,138.66 476.3,137.789 477.317,136.244L477.317,121.756C477.317,121.756 477.995,121.491 479.203,121.491C480.525,121.491 481.087,121.756 481.087,121.756L481.087,141.074C481.087,141.074 480.525,141.337 479.203,141.337C477.995,141.337 477.317,141.074 477.317,141.074L477.317,139.338C475.958,140.884 473.96,141.714 471.618,141.714C467.845,141.714 465.771,139.413 465.771,136.017L465.771,121.756Z" style="fill:rgb(73,80,86);fill-rule:nonzero;"/>
            <path d="M492.824,121.113C496.517,121.113 498.143,122.131 498.143,122.131C498.143,123.114 497.803,124.209 497.165,124.812C497.165,124.812 495.353,124.209 493.204,124.209C490.634,124.209 489.353,125.151 489.353,126.924C489.353,128.772 491.73,129.229 494.104,130.021C496.559,130.812 499.128,131.979 499.128,135.676C499.128,139.488 496.75,141.715 491.955,141.715C487.996,141.715 485.657,140.357 485.657,140.357C485.657,139.262 485.996,138.206 486.676,137.563C486.676,137.563 489.125,138.507 491.769,138.507C494.068,138.507 495.387,137.64 495.387,135.789C495.387,133.716 493.314,133.263 491.089,132.621C488.519,131.866 485.732,130.772 485.732,127.036C485.732,123.491 488.035,121.113 492.824,121.113Z" style="fill:rgb(73,80,86);fill-rule:nonzero;"/>
            <path d="M516.33,138.243C516.33,138.243 516.557,138.771 516.557,139.79C516.557,140.73 516.33,141.338 516.33,141.338L502.333,141.338C502.222,140.886 502.107,140.32 502.107,139.716C502.107,139.111 502.222,138.621 502.333,138.243L512.367,124.588L502.975,124.588C502.975,124.588 502.75,123.945 502.75,123.002C502.75,122.018 502.975,121.492 502.975,121.492L516.33,121.492C516.479,121.83 516.557,122.359 516.557,122.964C516.557,123.567 516.479,124.171 516.33,124.588L506.334,138.243L516.33,138.243Z" style="fill:rgb(73,80,86);fill-rule:nonzero;"/>
            <path d="M193.238,159.449C198.18,159.449 201.35,162.656 201.35,167.412C201.35,171.146 199.35,173.974 196.03,174.958L202.592,186.349C202.592,186.349 201.803,186.612 200.331,186.612C198.935,186.612 198.142,186.349 198.142,186.349L191.879,175.331L187.426,175.331L187.426,186.349C187.426,186.349 186.784,186.612 185.54,186.612C184.146,186.612 183.579,186.349 183.579,186.349L183.579,159.449L193.238,159.449ZM187.426,172.126L192.746,172.126C195.69,172.126 197.35,170.391 197.35,167.412C197.35,164.392 195.69,162.656 192.746,162.656L187.426,162.656L187.426,172.126Z" style="fill:rgb(73,80,86);fill-rule:nonzero;"/>
            <path d="M209.611,177.859C209.914,182.351 211.724,183.783 214.858,183.783C217.535,183.783 219.308,182.691 219.308,182.691C219.989,183.294 220.478,184.312 220.517,185.405C220.517,185.405 218.365,186.989 214.253,186.989C208.442,186.989 205.727,183.407 205.727,176.578C205.727,169.447 209.083,166.389 214.102,166.389C218.743,166.389 221.573,168.955 221.573,173.974C221.573,176.351 221.156,177.859 221.156,177.859L209.611,177.859ZM214.102,169.371C211.652,169.371 209.914,170.994 209.611,175.181L217.687,175.181C217.725,174.882 217.8,174.277 217.8,173.485C217.8,171.26 216.894,169.371 214.102,169.371Z" style="fill:rgb(73,80,86);fill-rule:nonzero;"/>
            <path d="M241.306,186.349C241.306,186.349 240.663,186.612 239.42,186.612C238.137,186.612 237.533,186.349 237.533,186.349L237.533,172.768C237.533,170.654 236.438,169.447 234.022,169.447C232.365,169.447 230.743,170.353 229.761,171.86L229.761,186.349C229.761,186.349 229.081,186.612 227.875,186.612C226.555,186.612 225.988,186.349 225.988,186.349L225.988,158.58C225.988,158.58 226.555,158.315 227.875,158.315C229.081,158.315 229.761,158.58 229.761,158.58L229.761,168.77C231.117,167.222 233.08,166.391 235.458,166.391C239.23,166.391 241.306,168.693 241.306,172.087L241.306,186.349Z" style="fill:rgb(73,80,86);fill-rule:nonzero;"/>
            <path d="M253.568,166.391C259.04,166.391 260.776,168.844 260.776,173.71L260.776,186.349C260.776,186.349 260.362,186.612 259.303,186.612C258.361,186.612 257.794,186.349 257.794,186.349L257.229,183.933C256.247,185.935 254.172,186.99 251.305,186.99C247.759,186.99 245.459,184.915 245.459,180.691C245.459,176.578 247.985,174.768 252.701,174.768C254.399,174.768 256.021,174.882 257.002,174.994L257.002,173.598C257.002,171.032 256.021,169.561 253.116,169.561C250.475,169.561 248.06,170.504 248.06,170.504C248.022,170.466 247.569,170.162 247.193,169.372C246.852,168.58 246.966,167.827 246.966,167.786C246.966,167.786 249.795,166.391 253.568,166.391ZM253.192,177.33C250.664,177.33 249.343,178.314 249.343,180.691C249.343,183.142 250.588,184.086 252.624,184.086C255.606,184.086 257.002,181.558 257.002,178.877L257.002,177.557C256.135,177.481 254.625,177.33 253.192,177.33Z" style="fill:rgb(73,80,86);fill-rule:nonzero;"/>
            <path d="M269.907,168.844C270.963,167.298 272.662,166.389 275.341,166.389C279.639,166.389 282.431,168.996 282.431,176.692C282.431,184.388 279.639,186.99 275.341,186.99C272.662,186.99 270.963,186.085 269.907,184.539L269.907,186.349C269.907,186.349 269.266,186.611 267.982,186.611C266.738,186.611 266.131,186.349 266.131,186.349L266.131,158.58C266.131,158.58 266.738,158.315 267.982,158.315C269.266,158.315 269.907,158.58 269.907,158.58L269.907,168.844ZM274.019,169.484C271.378,169.484 269.907,171.675 269.907,174.239L269.907,179.066C269.907,181.672 271.378,183.896 274.019,183.896C277.036,183.896 278.548,182.313 278.548,176.692C278.548,171.068 277.036,169.484 274.019,169.484Z" style="fill:rgb(73,80,86);fill-rule:nonzero;"/>
            <path d="M291.035,162.958C291.035,162.958 290.357,163.222 289.075,163.222C287.716,163.222 287.112,162.958 287.112,162.958L287.112,159.413C287.112,159.413 287.716,159.145 289.075,159.145C290.357,159.145 291.035,159.413 291.035,159.413L291.035,162.958ZM290.96,186.349C290.96,186.349 290.32,186.611 289.075,186.611C287.754,186.611 287.186,186.349 287.186,186.349L287.186,167.033C287.186,167.033 287.754,166.769 289.075,166.769C290.32,166.769 290.96,167.033 290.96,167.033L290.96,186.349Z" style="fill:rgb(73,80,86);fill-rule:nonzero;"/>
            <path d="M300.431,186.349C300.431,186.349 299.79,186.612 298.545,186.612C297.223,186.612 296.659,186.349 296.659,186.349L296.659,158.58C296.659,158.58 297.223,158.315 298.545,158.315C299.79,158.315 300.431,158.58 300.431,158.58L300.431,186.349Z" style="fill:rgb(73,80,86);fill-rule:nonzero;"/>
            <path d="M309.976,162.958C309.976,162.958 309.296,163.222 308.013,163.222C306.659,163.222 306.052,162.958 306.052,162.958L306.052,159.413C306.052,159.413 306.659,159.145 308.013,159.145C309.296,159.145 309.976,159.413 309.976,159.413L309.976,162.958ZM309.9,186.349C309.9,186.349 309.26,186.611 308.013,186.611C306.695,186.611 306.13,186.349 306.13,186.349L306.13,167.033C306.13,167.033 306.695,166.769 308.013,166.769C309.26,166.769 309.9,167.033 309.9,167.033L309.9,186.349Z" style="fill:rgb(73,80,86);fill-rule:nonzero;"/>
            <path d="M320.542,179.481C320.542,182.917 321.638,183.934 324.313,183.934C325.069,183.934 325.9,183.783 325.9,183.783C325.9,183.783 326.163,184.427 326.163,185.293C326.163,186.16 325.974,186.649 325.974,186.649C325.296,186.84 324.276,186.989 323.259,186.989C318.618,186.989 316.771,184.463 316.771,179.669L316.771,169.597L313.865,169.597C313.865,169.597 313.639,169.069 313.639,168.203C313.639,167.259 313.865,166.769 313.865,166.769L316.771,166.769L316.771,163.334C317.75,162.73 319.147,162.468 320.542,162.58L320.542,166.769L325.445,166.769C325.445,166.769 325.674,167.259 325.674,168.164C325.674,169.032 325.445,169.597 325.445,169.597L320.542,169.597L320.542,179.481Z" style="fill:rgb(73,80,86);fill-rule:nonzero;"/>
            <path d="M336.654,166.391C342.123,166.391 343.857,168.844 343.857,173.71L343.857,186.349C343.857,186.349 343.448,186.612 342.391,186.612C341.449,186.612 340.88,186.349 340.88,186.349L340.314,183.933C339.332,185.935 337.259,186.99 334.39,186.99C330.843,186.99 328.542,184.915 328.542,180.691C328.542,176.578 331.069,174.768 335.789,174.768C337.485,174.768 339.108,174.882 340.086,174.994L340.086,173.598C340.086,171.032 339.108,169.561 336.203,169.561C333.56,169.561 331.142,170.504 331.142,170.504C331.108,170.466 330.654,170.162 330.277,169.372C329.937,168.58 330.049,167.827 330.049,167.786C330.049,167.786 332.883,166.391 336.654,166.391ZM336.276,177.33C333.751,177.33 332.428,178.314 332.428,180.691C332.428,183.142 333.674,184.086 335.712,184.086C338.688,184.086 340.086,181.558 340.086,178.877L340.086,177.557C339.222,177.481 337.709,177.33 336.276,177.33Z" style="fill:rgb(73,80,86);fill-rule:nonzero;"/>
            <path d="M352.238,176.692C352.238,181.634 353.824,183.783 357.445,183.783C359.52,183.783 360.992,183.144 360.992,183.144C361.633,183.707 362.048,184.803 362.084,185.861C362.084,185.861 360.423,186.989 356.651,186.989C351.14,186.989 348.351,183.405 348.351,176.692C348.351,169.975 351.14,166.391 356.651,166.391C360.274,166.391 361.708,167.333 361.708,167.333C361.708,168.354 361.292,169.41 360.615,170.053C360.615,170.053 359.293,169.484 357.295,169.484C353.674,169.484 352.238,171.788 352.238,176.692Z" style="fill:rgb(73,80,86);fill-rule:nonzero;"/>
            <path d="M366.161,167.033C366.161,167.033 366.728,166.769 368.046,166.769C369.294,166.769 369.934,167.033 369.934,167.033L369.934,189.935C369.934,193.934 368.01,196.047 364.463,196.047C362.878,196.047 361.933,195.707 361.933,195.707C361.933,195.707 361.821,195.331 361.821,194.839C361.821,193.517 362.198,192.914 362.198,192.914C362.198,192.914 362.804,193.064 363.597,193.064C365.292,193.064 366.161,192.158 366.161,190.085L366.161,167.033ZM370.01,162.92C370.01,162.92 369.333,163.185 368.046,163.185C366.689,163.185 366.085,162.92 366.085,162.92L366.085,159.372C366.085,159.372 366.689,159.109 368.046,159.109C369.333,159.109 370.01,159.372 370.01,159.372L370.01,162.92Z" style="fill:rgb(73,80,86);fill-rule:nonzero;"/>
            <path d="M379.441,162.958C379.441,162.958 378.763,163.222 377.478,163.222C376.122,163.222 375.516,162.958 375.516,162.958L375.516,159.413C375.516,159.413 376.122,159.145 377.478,159.145C378.763,159.145 379.441,159.413 379.441,159.413L379.441,162.958ZM379.369,186.349C379.369,186.349 378.726,186.611 377.478,186.611C376.163,186.611 375.594,186.349 375.594,186.349L375.594,167.033C375.594,167.033 376.163,166.769 377.478,166.769C378.726,166.769 379.369,167.033 379.369,167.033L379.369,186.349Z" style="fill:rgb(73,80,86);fill-rule:nonzero;"/>
            <path d="M403.513,159.071C410.042,159.071 414.155,163.26 414.155,173.031C414.155,182.803 410.116,186.99 403.513,186.99C396.912,186.99 392.875,182.803 392.875,173.031C392.875,163.336 396.991,159.071 403.513,159.071ZM403.513,162.278C399.513,162.278 396.912,164.69 396.912,173.031C396.912,181.369 399.513,183.783 403.513,183.783C407.551,183.783 410.116,181.369 410.116,173.031C410.116,164.69 407.551,162.278 403.513,162.278Z" style="fill:rgb(73,80,86);fill-rule:nonzero;"/>
            <path d="M425.324,166.391C429.017,166.391 430.643,167.411 430.643,167.411C430.643,168.392 430.301,169.485 429.663,170.089C429.663,170.089 427.851,169.485 425.701,169.485C423.132,169.485 421.851,170.427 421.851,172.202C421.851,174.052 424.23,174.504 426.604,175.295C429.056,176.087 431.624,177.256 431.624,180.955C431.624,184.767 429.25,186.99 424.455,186.99C420.496,186.99 418.155,185.633 418.155,185.633C418.155,184.539 418.492,183.483 419.176,182.841C419.176,182.841 421.625,183.785 424.266,183.785C426.565,183.785 427.887,182.916 427.887,181.067C427.887,178.992 425.815,178.537 423.589,177.9C421.02,177.143 418.23,176.049 418.23,172.315C418.23,168.77 420.535,166.391 425.324,166.391Z" style="fill:rgb(73,80,86);fill-rule:nonzero;"/>
            <path d="M443.436,166.391C448.639,166.391 451.808,169.221 451.808,176.692C451.808,184.162 448.603,186.99 443.436,186.99C438.262,186.99 435.057,184.162 435.057,176.692C435.057,169.221 438.262,166.391 443.436,166.391ZM443.436,169.297C440.68,169.297 438.905,170.882 438.905,176.692C438.905,182.5 440.68,184.086 443.436,184.086C446.184,184.086 447.922,182.5 447.922,176.692C447.922,170.882 446.184,169.297 443.436,169.297ZM443.661,157.337C444.866,157.186 446.379,157.865 446.944,158.732L442.226,163.826C441.32,163.675 440.531,163.298 440.076,162.657L443.661,157.337Z" style="fill:rgb(73,80,86);fill-rule:nonzero;"/>
            <path d="M460.222,168.844C461.28,167.298 462.979,166.389 465.659,166.389C469.958,166.389 472.75,168.996 472.75,176.692C472.75,184.388 469.958,186.99 465.659,186.99C462.979,186.99 461.28,186.085 460.222,184.539L460.222,186.349C460.222,186.349 459.583,186.611 458.302,186.611C457.052,186.611 456.449,186.349 456.449,186.349L456.449,158.58C456.449,158.58 457.052,158.315 458.302,158.315C459.583,158.315 460.222,158.58 460.222,158.58L460.222,168.844ZM464.336,169.484C461.696,169.484 460.222,171.675 460.222,174.239L460.222,179.066C460.222,181.672 461.696,183.896 464.336,183.896C467.353,183.896 468.865,182.313 468.865,176.692C468.865,171.068 467.353,169.484 464.336,169.484Z" style="fill:rgb(73,80,86);fill-rule:nonzero;"/>
            <path d="M189.239,214.459C187.841,212.008 187.012,209.594 187.012,209.594L186.861,209.594C186.861,209.594 187.126,212.121 187.126,215.932L187.126,231.629C187.126,231.629 186.56,231.893 185.313,231.893C184.106,231.893 183.579,231.629 183.579,231.629L183.579,204.991C183.579,204.991 184.37,204.725 185.88,204.725C187.39,204.725 188.145,204.991 188.145,204.991L197.537,222.005C198.898,224.461 199.878,227.023 199.878,227.023L199.991,227.023C199.991,227.023 199.729,224.233 199.729,220.727L199.729,204.991C199.729,204.991 200.292,204.725 201.538,204.725C202.784,204.725 203.271,204.991 203.271,204.991L203.271,231.629C203.271,231.629 202.556,231.893 201.049,231.893C199.539,231.893 198.746,231.629 198.746,231.629L189.239,214.459Z" style="fill:rgb(73,80,86);fill-rule:nonzero;"/>
            <path d="M213.31,208.236C213.31,208.236 212.63,208.5 211.348,208.5C209.989,208.5 209.388,208.236 209.388,208.236L209.388,204.689C209.388,204.689 209.989,204.424 211.348,204.424C212.63,204.424 213.31,204.689 213.31,204.689L213.31,208.236ZM213.236,231.63C213.236,231.63 212.594,231.893 211.348,231.893C210.03,231.893 209.462,231.63 209.462,231.63L209.462,212.309C209.462,212.309 210.03,212.045 211.348,212.045C212.594,212.045 213.236,212.309 213.236,212.309L213.236,231.63Z" style="fill:rgb(73,80,86);fill-rule:nonzero;"/>
            <path d="M221.839,223.139C222.14,227.63 223.951,229.062 227.082,229.062C229.76,229.062 231.536,227.969 231.536,227.969C232.215,228.573 232.705,229.589 232.742,230.685C232.742,230.685 230.593,232.27 226.479,232.27C220.669,232.27 217.952,228.686 217.952,221.855C217.952,214.724 221.311,211.669 226.326,211.669C230.969,211.669 233.799,214.235 233.799,219.253C233.799,221.63 233.383,223.139 233.383,223.139L221.839,223.139ZM226.326,214.647C223.875,214.647 222.14,216.272 221.839,220.458L229.912,220.458C229.952,220.159 230.025,219.556 230.025,218.762C230.025,216.537 229.121,214.647 226.326,214.647Z" style="fill:rgb(73,80,86);fill-rule:nonzero;"/>
            <path d="M247.419,211.669C251.721,211.669 254.513,214.271 254.513,221.97C254.513,229.666 251.721,232.271 247.419,232.271C244.739,232.271 243.042,231.364 241.986,229.814L241.986,240.384C241.986,240.384 241.346,240.607 240.061,240.607C238.818,240.607 238.213,240.384 238.213,240.384L238.213,212.31C238.213,212.31 238.818,212.046 240.061,212.046C241.346,212.046 241.986,212.31 241.986,212.31L241.986,214.12C243.042,212.574 244.739,211.669 247.419,211.669ZM246.098,214.763C243.457,214.763 241.986,216.95 241.986,219.518L241.986,224.347C241.986,226.949 243.457,229.177 246.098,229.177C249.116,229.177 250.627,227.588 250.627,221.97C250.627,216.348 249.116,214.763 246.098,214.763Z" style="fill:rgb(73,80,86);fill-rule:nonzero;"/>
            <path d="M262.248,223.139C262.551,227.63 264.36,229.062 267.493,229.062C270.17,229.062 271.945,227.969 271.945,227.969C272.624,228.573 273.114,229.589 273.154,230.685C273.154,230.685 271,232.27 266.887,232.27C261.079,232.27 258.362,228.686 258.362,221.855C258.362,214.724 261.72,211.669 266.739,211.669C271.378,211.669 274.208,214.235 274.208,219.253C274.208,221.63 273.795,223.139 273.795,223.139L262.248,223.139ZM266.739,214.647C264.286,214.647 262.551,216.272 262.248,220.458L270.321,220.458C270.36,220.159 270.436,219.556 270.436,218.762C270.436,216.537 269.531,214.647 266.739,214.647Z" style="fill:rgb(73,80,86);fill-rule:nonzero;"/>
            <path d="M282.322,203.596C283.566,203.596 284.208,203.859 284.208,203.859L284.208,214.235L286.849,212.726C286.886,212.726 287.189,212.99 287.606,213.593C287.982,214.307 288.018,214.724 288.018,214.763L284.208,216.989L284.208,231.629C284.208,231.629 283.566,231.893 282.322,231.893C281.001,231.893 280.436,231.629 280.436,231.629L280.436,219.176L277.906,220.61C277.868,220.61 277.568,220.348 277.19,219.742C276.777,219.026 276.739,218.648 276.739,218.573L280.436,216.461L280.436,203.859C280.436,203.859 281.001,203.596 282.322,203.596Z" style="fill:rgb(73,80,86);fill-rule:nonzero;"/>
            <path d="M306.884,231.629C306.884,231.629 306.244,231.893 304.998,231.893C303.714,231.893 303.113,231.629 303.113,231.629L303.113,218.045C303.113,215.932 302.019,214.724 299.604,214.724C297.941,214.724 296.319,215.629 295.339,217.141L295.339,231.629C295.339,231.629 294.66,231.893 293.453,231.893C292.132,231.893 291.566,231.629 291.566,231.629L291.566,212.309C291.566,212.309 292.132,212.046 293.453,212.046C294.66,212.046 295.339,212.309 295.339,212.309L295.339,214.045C296.696,212.499 298.659,211.669 301.037,211.669C304.812,211.669 306.884,213.971 306.884,217.367L306.884,231.629Z" style="fill:rgb(73,80,86);fill-rule:nonzero;"/>
            <path d="M319.79,211.669C324.998,211.669 328.164,214.498 328.164,221.97C328.164,229.437 324.958,232.271 319.79,232.271C314.619,232.271 311.412,229.437 311.412,221.97C311.412,214.498 314.619,211.669 319.79,211.669ZM319.79,214.573C317.034,214.573 315.261,216.159 315.261,221.97C315.261,227.779 317.034,229.365 319.79,229.365C322.545,229.365 324.28,227.779 324.28,221.97C324.28,216.159 322.545,214.573 319.79,214.573Z" style="fill:rgb(73,80,86);fill-rule:nonzero;"/>
            <path d="M339.031,211.669C342.728,211.669 344.35,212.687 344.35,212.687C344.35,213.669 344.013,214.763 343.373,215.364C343.373,215.364 341.558,214.763 339.408,214.763C336.843,214.763 335.56,215.707 335.56,217.48C335.56,219.327 337.937,219.783 340.314,220.573C342.763,221.364 345.333,222.532 345.333,226.231C345.333,230.044 342.957,232.271 338.165,232.271C334.203,232.271 331.862,230.912 331.862,230.912C331.862,229.814 332.205,228.76 332.883,228.119C332.883,228.119 335.335,229.062 337.973,229.062C340.278,229.062 341.597,228.195 341.597,226.346C341.597,224.271 339.52,223.818 337.296,223.175C334.729,222.422 331.94,221.325 331.94,217.593C331.94,214.045 334.239,211.669 339.031,211.669Z" style="fill:rgb(73,80,86);fill-rule:nonzero;"/>
            <path d="M358.843,211.669C363.143,211.669 365.934,214.271 365.934,221.97C365.934,229.666 363.143,232.271 358.843,232.271C356.162,232.271 354.465,231.364 353.406,229.814L353.406,240.384C353.406,240.384 352.767,240.607 351.484,240.607C350.239,240.607 349.635,240.384 349.635,240.384L349.635,212.31C349.635,212.31 350.239,212.046 351.484,212.046C352.767,212.046 353.406,212.31 353.406,212.31L353.406,214.12C354.465,212.574 356.162,211.669 358.843,211.669ZM357.521,214.763C354.878,214.763 353.406,216.95 353.406,219.518L353.406,224.347C353.406,226.949 354.878,229.177 357.521,229.177C360.536,229.177 362.047,227.588 362.047,221.97C362.047,216.348 360.536,214.763 357.521,214.763Z" style="fill:rgb(73,80,86);fill-rule:nonzero;"/>
            <path d="M379.028,211.708C380.425,211.708 381.477,212.121 382.311,212.649C382.197,214.007 381.667,214.989 380.649,215.82C379.93,215.29 379.177,215.026 378.308,215.026C376.837,215.026 375.402,216.159 374.423,217.895L374.423,231.629C374.423,231.629 373.782,231.893 372.538,231.893C371.217,231.893 370.651,231.629 370.651,231.629L370.651,212.31C370.651,212.31 371.217,212.046 372.538,212.046C373.782,212.046 374.423,212.31 374.423,212.31L374.423,214.914C375.856,212.537 377.516,211.708 379.028,211.708Z" style="fill:rgb(73,80,86);fill-rule:nonzero;"/>
            <path d="M392.12,211.669C397.59,211.669 399.328,214.12 399.328,218.989L399.328,231.629C399.328,231.629 398.912,231.893 397.855,231.893C396.912,231.893 396.346,231.629 396.346,231.629L395.779,229.215C394.801,231.215 392.723,232.271 389.856,232.271C386.309,232.271 384.011,230.193 384.011,225.968C384.011,221.854 386.539,220.044 391.252,220.044C392.95,220.044 394.572,220.158 395.555,220.27L395.555,218.876C395.555,216.31 394.572,214.837 391.667,214.837C389.024,214.837 386.61,215.78 386.61,215.78C386.574,215.741 386.123,215.44 385.744,214.647C385.405,213.856 385.518,213.102 385.518,213.064C385.518,213.064 388.346,211.669 392.12,211.669ZM391.743,222.61C389.216,222.61 387.894,223.591 387.894,225.968C387.894,228.422 389.141,229.365 391.177,229.365C394.159,229.365 395.555,226.836 395.555,224.157L395.555,222.839C394.686,222.761 393.179,222.61 391.743,222.61Z" style="fill:rgb(73,80,86);fill-rule:nonzero;"/>
            <path d="M417.968,221.403C417.25,218.84 417.02,217.14 416.947,215.97L416.796,215.97C416.719,217.14 416.492,218.876 415.739,221.403L412.76,231.63C412.157,231.814 411.441,231.893 410.61,231.893C409.815,231.893 409.064,231.814 408.421,231.63L402.723,212.309C402.723,212.309 403.404,212.046 404.609,212.046C405.892,212.046 406.233,212.309 406.233,212.309L409.815,224.347C410.306,225.968 410.495,227.252 410.61,228.044L410.721,228.044C410.871,227.213 411.062,226.007 411.552,224.347L415.023,212.309C415.023,212.309 415.929,212.046 417.062,212.046C418.306,212.046 418.905,212.309 418.905,212.309L422.267,224.272C422.757,225.968 422.945,227.252 423.023,228.044L423.137,228.044C423.288,227.252 423.549,226.045 424.08,224.307L427.623,212.309C427.623,212.309 428.229,212.046 429.285,212.046C430.452,212.046 430.906,212.309 430.906,212.309L425.207,231.63C424.53,231.814 423.852,231.893 423.06,231.893C422.267,231.893 421.588,231.814 420.872,231.63L417.968,221.403Z" style="fill:rgb(73,80,86);fill-rule:nonzero;"/>
            <path d="M449.926,231.629C449.926,231.629 449.284,231.893 448.037,231.893C446.756,231.893 446.152,231.629 446.152,231.629L446.152,218.045C446.152,215.932 445.058,214.724 442.642,214.724C440.98,214.724 439.359,215.629 438.381,217.141L438.381,231.629C438.381,231.629 437.701,231.893 436.493,231.893C435.171,231.893 434.606,231.629 434.606,231.629L434.606,212.309C434.606,212.309 435.171,212.046 436.493,212.046C437.701,212.046 438.381,212.309 438.381,212.309L438.381,214.045C439.738,212.499 441.699,211.669 444.078,211.669C447.848,211.669 449.926,213.971 449.926,217.367L449.926,231.629Z" style="fill:rgb(73,80,86);fill-rule:nonzero;"/>
            <path d="M464.074,234.799C462.716,238.95 461.398,241.327 457.323,241.327C456.074,241.327 455.246,240.949 455.246,240.949C455.246,240.911 454.98,240.306 454.98,239.553C454.98,238.723 455.246,238.078 455.281,238.043C455.281,238.043 456.115,238.194 456.98,238.194C458.678,238.194 459.547,237.742 460.679,234.192L461.471,231.893C461.095,231.854 460.679,231.814 460.263,231.63L453.095,212.309C453.095,212.309 453.811,212.046 455.055,212.046C456.339,212.046 457.019,212.309 457.019,212.309L461.321,223.78C462.263,226.383 462.642,228.194 462.642,228.194L462.792,228.194C462.792,228.194 463.168,226.424 464,223.818L467.734,212.309C467.734,212.309 468.34,212.046 469.582,212.046C470.675,212.046 471.355,212.309 471.355,212.309L464.074,234.799Z" style="fill:rgb(73,80,86);fill-rule:nonzero;"/>
            <path d="M477.958,221.969C477.958,226.912 479.545,229.062 483.163,229.062C485.241,229.062 486.712,228.422 486.712,228.422C487.354,228.987 487.769,230.079 487.806,231.137C487.806,231.137 486.148,232.271 482.371,232.271C476.864,232.271 474.072,228.686 474.072,221.969C474.072,215.253 476.864,211.668 482.371,211.668C485.995,211.668 487.429,212.613 487.429,212.613C487.429,213.629 487.013,214.687 486.335,215.329C486.335,215.329 485.013,214.763 483.013,214.763C479.395,214.763 477.958,217.064 477.958,221.969Z" style="fill:rgb(73,80,86);fill-rule:nonzero;"/>
            <path d="M507.126,231.629C507.126,231.629 506.484,231.893 505.235,231.893C503.954,231.893 503.352,231.629 503.352,231.629L503.352,218.045C503.352,215.932 502.256,214.724 499.843,214.724C498.186,214.724 496.56,215.629 495.58,217.141L495.58,231.629C495.58,231.629 494.901,231.893 493.688,231.893C492.374,231.893 491.803,231.629 491.803,231.629L491.803,203.857C491.803,203.857 492.374,203.596 493.688,203.596C494.901,203.596 495.58,203.857 495.58,203.857L495.58,214.045C496.938,212.499 498.899,211.669 501.276,211.669C505.048,211.669 507.126,213.971 507.126,217.367L507.126,231.629Z" style="fill:rgb(73,80,86);fill-rule:nonzero;"/>
            <path d="M87.376,156.849C85.447,156.849 83.897,158.411 83.897,160.334L83.897,228.226C83.897,230.15 85.447,231.708 87.376,231.708C89.296,231.708 90.855,230.15 90.855,228.226L90.855,160.334C90.855,158.411 89.296,156.849 87.376,156.849Z" style="fill:rgb(0,173,77);fill-rule:nonzero;"/>
            <path d="M149.415,156.436C130.009,159.343 114.336,171.99 105.92,190.946C105.485,175.553 107.686,158.464 113.956,144.638C114.751,142.887 113.969,140.829 112.217,140.032C110.465,139.229 108.405,140.015 107.609,141.768C93.706,172.435 98.259,214.916 107.552,229.998C108.205,231.067 109.349,231.653 110.518,231.653C111.143,231.653 111.772,231.486 112.34,231.14C113.98,230.129 114.489,227.981 113.482,226.348C110.721,221.866 108.734,215.278 107.361,206.608C133.047,202.032 147.927,180.107 153.291,160.816L153.291,160.783C153.416,160.335 153.458,159.853 153.379,159.368C153.088,157.464 151.311,156.133 149.415,156.436ZM110.272,198.818C116.351,181.322 128.825,168.984 144.719,164.576C139.249,179.122 127.972,193.928 110.272,198.818Z" style="fill:rgb(0,173,77);fill-rule:nonzero;"/>
            <path d="M82.199,176.051C80.605,176.051 79.162,174.948 78.808,173.323C78.385,171.447 79.564,169.587 81.445,169.164L109.552,162.951C111.427,162.525 113.283,163.719 113.703,165.6C114.125,167.475 112.938,169.339 111.065,169.748L82.951,175.961C82.705,176.018 82.448,176.051 82.199,176.051Z" style="fill:rgb(239,63,68);fill-rule:nonzero;"/>
            <path d="M156.026,89.11C154.887,88.271 153.363,88.214 152.153,88.939L137.029,98.06L127.907,82.915C127.436,82.121 126.666,81.554 125.758,81.335C124.872,81.111 123.92,81.26 123.127,81.729L107.983,90.862L98.85,75.71C98.127,74.503 96.765,73.861 95.346,74.064C93.949,74.275 92.825,75.302 92.49,76.676L85.296,105.733C83.147,114.387 84.49,123.361 89.103,131.006C93.711,138.649 101.016,144.047 109.671,146.187C112.323,146.847 115.037,147.181 117.741,147.181C133.116,147.181 146.442,136.744 150.139,121.794L157.334,92.751C157.677,91.388 157.152,89.948 156.026,89.11ZM143.381,120.122C140.452,131.959 129.909,140.213 117.741,140.213C115.598,140.213 113.449,139.951 111.346,139.431C104.497,137.732 98.714,133.464 95.066,127.415C91.421,121.364 90.347,114.256 92.053,107.402L97.221,86.506L103.822,97.441C104.294,98.234 105.062,98.8 105.958,99.027C106.861,99.248 107.803,99.108 108.595,98.629L123.733,89.497L131.063,101.65L115.919,110.765C114.267,111.757 113.734,113.896 114.728,115.546C115.381,116.627 116.531,117.236 117.716,117.236C118.326,117.236 118.944,117.074 119.505,116.733L137.638,105.825L137.64,105.825L148.55,99.239L143.381,120.122Z" style="fill:rgb(239,63,68);fill-rule:nonzero;"/>
        </g>
    </g>
</svg>
