<?xml version="1.0" encoding="UTF-8" standalone="no"?>
<!DOCTYPE svg PUBLIC "-//W3C//DTD SVG 1.1//EN" "http://www.w3.org/Graphics/SVG/1.1/DTD/svg11.dtd">
<svg width="100%" height="100%" viewBox="0 0 261 131" version="1.1" xmlns="http://www.w3.org/2000/svg" xmlns:xlink="http://www.w3.org/1999/xlink" xml:space="preserve" xmlns:serif="http://www.serif.com/" style="fill-rule:evenodd;clip-rule:evenodd;stroke-linejoin:round;stroke-miterlimit:2;">
    <g transform="matrix(1,0,0,1,-2609.54,-342.993)">
        <g transform="matrix(2,0,0,2,1894.25,0)">
            <g transform="matrix(1,0,0,1,394.889,236.71)">
                <path d="M0,-65.213L0,-19.478C0,-11.566 -4.344,-7.417 -14.479,-7.417C-24.614,-7.417 -28.958,-11.566 -28.958,-19.478L-28.958,-65.213L-37.244,-65.213L-37.244,-18.996C-37.244,-8.479 -31.174,0 -14.479,0C2.216,0 8.286,-8.479 8.286,-18.996L8.286,-65.213L0,-65.213Z" style="fill:rgb(44,76,151);fill-rule:nonzero;"/>
            </g>
        </g>
        <g transform="matrix(2,0,0,2,1894.25,0)">
            <g transform="matrix(1,0,0,1,442.303,235.745)">
                <path d="M0,-64.248L-9.745,-64.248L-32.902,-32.703L-8.008,0L1.93,0L-23.543,-32.703L0,-64.248Z" style="fill:rgb(189,215,83);fill-rule:nonzero;"/>
            </g>
        </g>
        <g transform="matrix(2,0,0,2,1894.25,0)">
            <g transform="matrix(1,0,0,1,449.907,171.497)">
                <path d="M0,64.248L37.907,64.248L37.907,56.831L8.286,56.831L8.286,7.417L37.811,7.417L37.811,0L0,0L0,64.248Z" style="fill:rgb(189,215,83);fill-rule:nonzero;"/>
            </g>
        </g>
        <g transform="matrix(2,0,0,2,1894.25,0)">
            <g transform="matrix(1,0,0,1,453.782,199.912)">
                <path d="M0,7.417L26.667,7.417L26.667,0L0,0" style="fill:rgb(189,215,83);fill-rule:nonzero;"/>
            </g>
        </g>
    </g>
</svg>
